<svg fill="currentColor" xmlns="http://www.w3.org/2000/svg" version="1.1" viewBox="-5.0 -10.0 110.0 135.0">
 <path d="m74.363 43.762c1.3984-0.011719 2.7734-0.11328 4.1367-0.31641-1.4648 1.0117-3.0586 2.3516-4.8398 3.9102-3.3516 2.9414-6.8164 5.9766-10.648 6.7969-0.78516 0.16016-1.5352 0.25-2.25 0.25-1.7734 0-3.3086-0.52344-4.5898-1.5469-1.5469-1.2266-2.4336-3.0117-2.9414-4.6484 0.44141 0.10156 0.875 0.16016 1.3164 0.16016 0.375 0 0.75-0.046876 1.1133-0.125 0.41016 1.0586 1.0234 2.1133 1.9414 2.8516 1.2266 0.97656 2.8984 1.2617 4.9414 0.82812 3.2383-0.69141 6.4883-3.5234 9.625-6.2734 0.71484-0.625 1.4531-1.2734 2.1914-1.8867zm13.32-3.2852c-0.86328 0.45313-1.7617 0.86328-2.6719 1.2148 0.69141 0.21484 1.3867 0.58984 2.0781 1.1602 0.48828 0.39844 1.2031 0.31641 1.6016-0.17187 0.38672-0.48828 0.31641-1.2031-0.17188-1.6016-0.28516-0.22656-0.55859-0.43359-0.83984-0.60156zm-42.41-22.227c-0.32813-1.0898-0.5-2.2969-0.22656-3.4414 0.36328-1.5469 1.5-2.7852 3.375-3.7148 2.9648-1.4531 7.2734-1.2383 11.441-1.0117 0.95312 0.058594 1.9219 0.10156 2.8867 0.125 1.0898-0.85156 2.25-1.625 3.4414-2.3086-1.7734 0.11328-3.8516 0.035156-6.2148-0.089844-4.4531-0.23828-9.0586-0.47656-12.566 1.25-2.5117 1.2383-4.0586 3-4.5781 5.2383-0.44141 1.9219-0.046875 3.875 0.56641 5.4531 0.56641-0.72656 1.2266-1.1914 1.875-1.5zm30.262-14.691c0.14844-0.61328-0.23828-1.2148-0.85156-1.3633-0.60156-0.13672-1.2148 0.25-1.3633 0.86328-0.19141 0.875-0.5 1.5898-0.91016 2.1914 0.93359-0.29688 1.875-0.52344 2.8398-0.70312 0.11328-0.30859 0.20312-0.63672 0.28516-0.98828zm8.2656 26.812 7.0703 2.0898c-0.050782-2.1562-0.28516-4.8203-0.94141-7.8125l-6.1289 5.7266zm4.8359-10.336c-0.23828-0.69141-0.50781-1.3672-0.78516-2.043l-5.4844 4.2109 6.9219-0.078125c-0.19531-0.6875-0.41016-1.3789-0.65625-2.0898zm-8.1055 4.4648c0.50781 1.6289 0.90625 3.1953 1.2148 4.6797l5.0859-4.75zm0.57031-17.266c0.042969-0.058594 0.10156-0.09375 0.15234-0.14453-0.21875-0.25781-0.42578-0.52344-0.64844-0.77734-2.9414 0.011719-5.8789 0.49609-8.7188 1.4844-0.078125 0.027344-0.15625 0.0625-0.23438 0.089844 1.6445 2.0352 3.1172 4.1836 4.4141 6.4375zm-2.6562 7.6641 8.3398 0.71094c-1.1406-2.3477-2.5117-4.5898-4.0859-6.6992zm1.0469 6.6484 5.0117-3.8477-6.9453-0.59375c0.71484 1.4414 1.3594 2.9219 1.9336 4.4414zm-10.039-12.758c-0.62109 0.28516-1.2305 0.58984-1.8242 0.92188 3.5195 4.4375 6.2578 9.3867 8.125 14.781 2.418 6.9922 2.7812 12.977 2.7617 16.637 0.67188-0.10938 1.3438-0.24609 2.0078-0.40234 0.085937-3.3281-0.058594-9.5703-2.6211-16.977-1.9062-5.5039-4.75-10.516-8.4453-14.961zm12.848 23.508c0.45703 3.1836 0.53125 5.8516 0.50391 7.7852 0.074218-0.023437 0.15234-0.042969 0.23047-0.070312 2.8477-0.98438 5.4609-2.4219 7.7891-4.2344 0.015625-0.30078 0.03125-0.63281 0.042969-0.98828-0.078126-0.003906-0.16016-0.011718-0.23828-0.035156l-8.3242-2.457zm-6.0625 9.0977c0.035157-3.4766-0.26953-9.3203-2.6367-16.16-1.8125-5.2383-4.4805-10.035-7.9258-14.324-1.0977 0.73828-2.1484 1.5469-3.1289 2.4336 4.2812 4.5977 6.6016 9.4453 7.8359 13.004 2.3867 6.9023 2.0742 12.723 1.8867 15.062 1.3242 0.09375 2.6484 0.078125 3.9727-0.019531zm23.535-20.453-2.9414-8.5117c-0.58984-1.7031-1.9766-3.0469-3.7148-3.5781l-4.5234-1.375c-1.6094-0.48828-3.2422-0.80469-4.8789-0.99219 3.0703 3.8633 5.4766 8.1914 7.0742 12.809 2.0234 5.8398 2.3984 10.965 2.375 14.422 1.168-1.1562 2.25-2.4102 3.207-3.7812l2.7031-3.875c1.0352-1.4883 1.2969-3.3984 0.70312-5.1133zm-33.832 19.262c1.3281 0.42578 2.6875 0.73828 4.0625 0.95312 0.089844-1.1328 0.19141-3.0625 0-5.5078l-5.6172-0.73828c0.33594 1.957 0.47656 3.6484 0.53125 4.9648l1.0195 0.32812zm-5.0117-25.258c-0.94531 1.0156-1.8203 2.1016-2.6016 3.2578l-0.60547 0.89453c0.97656 1.3516 1.875 2.75 2.6641 4.2148l3.9531-4.043c-0.95312-1.4336-2.0781-2.8906-3.4102-4.3242zm4.6406 6.3203-4.1133 4.2109c0.36328 0.78906 0.69531 1.5977 1.0078 2.4141l5.375-1.8594c-0.55469-1.4453-1.2969-3.0664-2.2695-4.7656zm-2.8867 19.918c-0.023438-2.2148-0.23438-6.4805-1.9688-11.488-1.293-3.7344-3.1641-7.1758-5.5742-10.273-1.1953-0.19531-2.3984-0.27734-3.5938-0.21875 0.78516 0.58984 1.5469 1.3516 2.2969 2.2852 1.8281 2.25 3.5117 5.4336 4.7266 8.9531 1.2148 3.5117 1.8633 7.0586 1.8164 9.9531-0.023438 1.25-0.17188 2.3086-0.39844 3.2031 0.98047-0.69922 1.8711-1.5234 2.6953-2.418zm7.0625-7.8594c-0.23438-1.5859-0.60156-3.3203-1.1641-5.1484l-5.3633 1.8555c0.27344 0.87109 0.5 1.7109 0.69141 2.5234l5.8398 0.76562zm-7.9062 53.199c-2.5352 7.1602-9.9883 13.953-20.387 11.953-8.6914-1.6719-15.453-0.91016-21.434-0.23828-2.8516 0.31641-5.5469 0.625-8.1719 0.625-5.0898 0-9.7734-4.1602-11.375-10.125-0.88672-3.3164-0.375-6.9531 1.4102-9.9531 1.7852-3.0117 4.6133-5.1133 7.9531-5.9102 2.125-0.51172 7.0898-0.88672 10.887 4.9336-0.96484 4.1133-2.5 6.2852-3.8867 6.9414-0.79688 0.375-1.5781 0.23828-2.3281-0.39844-0.63672-0.53516-0.97656-1.0898-1.0234-1.7148-0.089844-1.0781 0.69141-2.0469 0.71484-2.0664 0.41016-0.47656 0.36328-1.1914-0.11328-1.6016-0.47656-0.41016-1.1914-0.36328-1.6016 0.11328-0.14844 0.17188-1.4336 1.7031-1.2734 3.7266 0.10156 1.2383 0.71484 2.3516 1.8281 3.2969 0.89844 0.73828 1.9102 1.125 2.9219 1.125 0.61328 0 1.2383-0.13672 1.8398-0.42188 3.9648-1.8633 6.2852-9.2617 6.2031-19.773-0.19141-22.852 12.613-37.59 25.09-38.625 0.625-0.058594 1.0898-0.60156 1.0352-1.2266-0.046875-0.625-0.57812-1.1016-1.2266-1.0469-1.6367 0.13672-3.2617 0.47656-4.8633 1.0117-0.035156-0.48828-0.066406-0.96484-0.058593-1.4336 0.058593-3.875 1.4414-5.1602 2.6016-5.5586 1.1484-0.39844 3.0469-0.25 5.4883 2.7617 1.6602 2.0469 3.2031 4.9883 4.3398 8.2617 1.1367 3.2734 1.7383 6.5352 1.6914 9.1836-0.058593 3.875-1.4531 5.1602-2.6016 5.5664-0.28516 0.089843-0.60156 0.16016-0.96484 0.16016-1.1367 0-2.6719-0.64844-4.5234-2.9336-0.11328-0.13672-0.22656-0.28516-0.32812-0.43359 1.7734-1.3164 3.0352-1.9102 3.0586-1.9219 0.56641-0.27344 0.81641-0.94141 0.55859-1.5117-0.27344-0.56641-0.94141-0.81641-1.5117-0.55859-0.14844 0.066406-15.434 7.3516-15.434 27.172 0 11.352 4.2266 14.715 6.0469 15.637 0.85156 0.44141 1.75 0.66016 2.625 0.66016 1.0664 0 2.1016-0.32812 2.9766-0.97656 1.5898-1.1719 2.3281-3.1367 1.9766-5.2734-0.10156-0.625-0.69141-1.0469-1.3086-0.94141-0.625 0.10156-1.0469 0.69141-0.94141 1.3086 0.21484 1.2969-0.17188 2.4219-1.0664 3.0781-0.89844 0.64844-2.1016 0.69141-3.2383 0.125-0.875-0.44141-3.2852-2.1602-4.3164-7.7734 1.1836-1.6914 3.0664-3.7031 5.8633-4.7031 3.2383-1.1719 6.9102-0.68359 10.887 1.4414 7.1836 3.8164 8.1719 11.816 5.9766 18.035zm-23.445-45.371c0.21875 0.19922 0.49219 0.29688 0.76562 0.29688 0.30859 0 0.61328-0.125 0.83984-0.37109 1.1602-1.2734 1.9844-1.8281 2.0078-1.8438 0.52344-0.34375 0.66797-1.0469 0.32422-1.5703-0.34375-0.52344-1.0469-0.67187-1.5742-0.32812-0.042968 0.027343-1.0508 0.69531-2.4375 2.2109-0.42187 0.46094-0.39062 1.1836 0.070313 1.6055zm-3.2109 4.9375c-0.5625-0.26953-1.2461-0.03125-1.5156 0.53516-4.0156 8.3867-5.4023 19.285-4.125 32.391 0.054687 0.58984 0.55078 1.0273 1.1289 1.0273 0.035156 0 0.074219-0.003907 0.10938-0.003907 0.625-0.0625 1.082-0.61719 1.0195-1.2422-1.543-15.809 1.2773-25.688 3.9141-31.191 0.26953-0.56641 0.03125-1.2422-0.53516-1.5156z"/>
<!-- Created by Kmg Design from Noun Project --></svg>