<svg fill="currentColor" xmlns="http://www.w3.org/2000/svg" version="1.1" viewBox="-5.0 -10.0 110.0 135.0">
 <path d="m63.727 23.566-5.25-4.2969c-0.81641-0.67188-1.7266-1.2031-2.7031-1.5664 2.2617-2.9336 6.2266-6.9648 11.809-8.6016 4.9531-1.4531 10.184-0.70312 15.535 2.2031l-0.38672 0.078124c-0.63672 0.13672-14.41 2.9883-19 12.184zm35.465 18.523c-0.48828-0.14844-1.0234 0.058594-1.2969 0.48828-0.023437 0.035156-1.7383 2.75-4.3281 4.9102v-0.011719c-1.7031 1.4336-3.8086 2.625-6.0234 2.625-0.32812 0-0.66016-0.035156-1-0.089843-0.61328-0.10156-1.0352-0.68359-0.93359-1.3086 0.10156-0.61328 0.69141-1.0352 1.3086-0.93359 2.5117 0.42188 5.4336-1.9766 7.3867-4.2031 0.39844-2.5781 0.72656-5.8398 0.64844-9.3516-0.19141-9.5234-3.3281-16.762-9.0781-21.137l-2.6914 0.53516c-0.16016 0.035157-13.773 2.8633-17.637 11.434l1.2969 1.0664c1.0352 0.83984 1.875 1.8867 2.4766 3.0352 1.0664-0.77344 2.4219-1.4648 4.125-1.8633l0.011719 0.011719c1.8867-0.45312 4.2031-0.55859 7.0234-0.046875 0.625 0.11328 1.0352 0.70312 0.92188 1.3281-0.11328 0.61328-0.70312 1.0234-1.3281 0.91016-1.8984-0.33984-3.5234-0.375-4.8984-0.20312 1.75 2.4102 3.9102 6.6914 3.25 12.637-0.72656 6.5352-1.1719 13.215 2.0117 16.785 1.5781 1.7617 3.9648 2.6602 7.0664 2.6602 4.9336 0 8.6719-3.2148 10.797-9.2852 1.5352-4.375 1.6914-8.6836 1.7031-8.8633 0.011719-0.51172-0.31641-0.96484-0.80859-1.125zm-28.77-9.1797c0.023437 0.27344 0.035156 0.54688 0.035156 0.81641 0 0.18359 0 0.41016-0.023437 0.66016 0.95312-0.18359 1.8867-0.27344 2.7734-0.27344l0.19141 0.011719c0.13672 0 0.27344 0.011719 0.41016 0.023438-1.0352-0.63672-2.1836-1.0586-3.3867-1.2383zm7.043 5.543c-0.30859-0.73828-1.25-2.0117-4.1016-2.0586-0.98828-0.023437-2.0781 0.10156-3.2148 0.375-0.31641 2.3086-0.89844 6.0352-1.8516 10.125 0.80859-0.20312 1.6367-0.47656 2.4531-0.80859 4.1836-1.7031 7.8281-4.8633 6.7148-7.6367zm-41.191-14.887 5.25-4.2969c0.81641-0.67188 1.7266-1.2031 2.7031-1.5664-2.2617-2.9336-6.2266-6.9648-11.809-8.6016-4.9531-1.4531-10.184-0.70312-15.535 2.2031l0.38672 0.078124c0.63672 0.13672 14.41 2.9883 19 12.184zm-36.273 19.648c0.011719 0.18359 0.17188 4.4883 1.7031 8.8633 2.125 6.0664 5.8633 9.2852 10.797 9.2852 3.1016 0 5.4883-0.89844 7.0664-2.6602 3.1836-3.5664 2.7383-10.25 2.0117-16.785-0.66016-5.9414 1.5-10.227 3.25-12.637-1.375-0.17188-3-0.13672-4.8984 0.20312-0.625 0.11328-1.2148-0.29688-1.3281-0.91016-0.11328-0.625 0.29688-1.2148 0.92188-1.3281 2.8164-0.51172 5.1367-0.41016 7.0234 0.046875l0.011719-0.011719c1.7031 0.39844 3.0586 1.0898 4.125 1.8633 0.60156-1.1484 1.4414-2.1914 2.4766-3.0352l1.2969-1.0664c-3.8633-8.5664-17.477-11.398-17.637-11.434l-2.6914-0.53516c-5.75 4.375-8.8867 11.613-9.0781 21.137-0.078125 3.5117 0.25 6.7734 0.64844 9.3516 1.9531 2.2266 4.875 4.625 7.3867 4.2031 0.61328-0.10156 1.2031 0.31641 1.3086 0.93359 0.10156 0.625-0.31641 1.2031-0.93359 1.3086-0.33984 0.058594-0.67188 0.089844-1 0.089844-2.2148 0-4.3164-1.1914-6.0234-2.625v0.011719c-2.5898-2.1602-4.3086-4.875-4.3281-4.9102-0.27344-0.43359-0.80859-0.63672-1.2969-0.48828-0.49609 0.16406-0.82422 0.61719-0.8125 1.1289zm26.191-9.0664c0.13672-0.011719 0.27344-0.023438 0.41016-0.023438l0.19141-0.011719c0.88672 0 1.8164 0.089844 2.7734 0.27344-0.023437-0.25-0.023437-0.47656-0.023437-0.66016 0-0.27344 0.011719-0.54687 0.035156-0.81641-1.2031 0.18359-2.3516 0.60156-3.3867 1.2383zm3.0586 11.941c0.81641 0.32812 1.6484 0.60156 2.4531 0.80859-0.95312-4.0898-1.5352-7.8164-1.8516-10.125-1.1367-0.27344-2.2266-0.39844-3.2148-0.375-2.8516 0.046874-3.7969 1.3164-4.1016 2.0586-1.1133 2.7734 2.5352 5.9336 6.7148 7.6367zm16.66 23.785c0.25781 1.0078 1.1641 1.7148 2.2031 1.7148h3.7734c1.0391 0 1.9453-0.71094 2.207-1.7227l0.42578-1.7227c-0.19531 0.023438-0.39062 0.035157-0.58984 0.035157-1.375 0-2.6602-0.53516-3.6367-1.5117l-0.29688-0.29688-0.29688 0.29688c-0.97656 0.97656-2.2617 1.5117-3.6367 1.5117-0.19922 0-0.39453-0.015626-0.58594-0.035157l0.42969 1.7305zm23.352 3.625c-1.6914-5.0664-3.0586-11.363-4.0352-16.613-1.3086 3.2148-2.9102 6.0664-4.8633 8.0234-0.58984 0.58984-1.3398 0.93359-2.1602 0.98828-0.29297 0.44141-0.66016 0.82422-1.0703 1.1523l-0.83594 3.3711c-0.51953 2.0312-2.332 3.4414-4.4102 3.4414h-3.7734c-2.0781 0-3.8906-1.4102-4.4062-3.4336l-0.83984-3.375c-0.41406-0.32813-0.78125-0.71484-1.0703-1.1562-0.81641-0.058594-1.5664-0.39844-2.1602-0.98828-1.9531-1.9531-3.5586-4.8086-4.8633-8.0117-0.97656 5.2383-2.3516 11.547-4.0352 16.602-0.10156 0.31641-0.066406 0.67188 0.11328 0.95312 0.38672 0.625 9.5352 15.316 19.148 15.316s18.762-14.691 19.148-15.316c0.18359-0.28516 0.21484-0.63672 0.11328-0.95312zm-1.0781-39.773c0 0.29688-0.011719 0.58984-0.058594 0.88672-0.41016 3.5586-2.75 21.184-8.8398 28.125 0.41016-2.3164 0.19141-4.7266-0.63672-6.9336-1.1719-3.1367-1.5-6.5234-0.95313-9.8164l0.089844-0.56641c4.6602-0.35156 4.7148-3.2383 4.7148-3.375 0-0.625-0.51172-1.1719-1.1367-1.1719s-1.1367 0.47656-1.1367 1.1016c-0.058593 0.42188-0.83984 1.2031-3.4102 1.2031-0.55859 0-1.0352 0.39844-1.125 0.95312l-0.23828 1.4766c-0.625 3.6836-0.25 7.4883 1.0586 10.988 0.85156 2.25 0.93359 4.7383 0.23828 7.0352-0.023438 0.10156-0.058594 0.20313-0.089844 0.30859-0.39844 1.1836-1.4883 1.9648-2.7266 1.9648-0.76172 0-1.4883-0.29688-2.0352-0.83984l-1.0898-1.1016c-0.21484-0.21484-0.51172-0.32812-0.80859-0.32812s-0.58984 0.11328-0.80859 0.32812l-1.0898 1.1016c-0.54687 0.54688-1.2734 0.83984-2.0352 0.83984-1.2383 0-2.3281-0.78516-2.7148-1.9648-0.035156-0.10156-0.066406-0.20312-0.089843-0.30859-0.70312-2.2969-0.625-4.7852 0.22656-7.0352 1.3086-3.5 1.6719-7.2969 1.0586-10.988l-0.23828-1.4766c-0.089844-0.55859-0.56641-0.95312-1.125-0.95312-2.5664 0-3.3516-0.78516-3.4102-1.1367 0-0.625-0.51172-1.1367-1.1367-1.1367s-1.1367 0.51172-1.1367 1.1367c0 0.13672 0.058594 3.0234 4.7148 3.375l0.089844 0.56641c0.54687 3.2969 0.21484 6.6836-0.95313 9.8164-0.81641 2.2031-1.0469 4.6133-0.64844 6.9336-6.0781-6.9414-8.4219-24.566-8.8281-28.125-0.035156-0.29688-0.058594-0.58984-0.058594-0.88672 0-2.2734 1.0117-4.4102 2.7734-5.8516l8.3633-6.8516c1.3516-1.1016 3.0586-1.7031 4.7969-1.7031h4.5c1.7383 0 3.4414 0.60156 4.7969 1.7031l8.3633 6.8516c1.7617 1.4414 2.7734 3.5781 2.7734 5.8516zm-19.949 26.621-2.2734-1.1367c-0.5625-0.27734-1.2461-0.050782-1.5234 0.50781-0.28125 0.5625-0.054688 1.2422 0.50781 1.5234l2.2734 1.1367c0.16406 0.082032 0.33594 0.12109 0.50781 0.12109 0.41797 0 0.82031-0.23047 1.0195-0.62891 0.28125-0.5625 0.054687-1.2422-0.50781-1.5234zm5.8047-1.1367-2.2734 1.1367c-0.5625 0.28125-0.78906 0.96484-0.50781 1.5234 0.19922 0.39844 0.60156 0.62891 1.0195 0.62891 0.17188 0 0.34375-0.039062 0.50781-0.12109l2.2734-1.1367c0.5625-0.28125 0.78906-0.96484 0.50781-1.5234-0.28125-0.5625-0.96484-0.78906-1.5234-0.50781zm2.7773-25.121c0-0.42578-0.23828-0.8125-0.61328-1.0078-2.3516-1.2188-4.0898-3.3867-4.7656-5.9453l-0.33984-1.2891c-0.13281-0.5-0.58203-0.84375-1.0977-0.84375s-0.96484 0.34766-1.0977 0.84375l-0.33984 1.293c-0.67578 2.5586-2.4141 4.7266-4.7656 5.9453-0.375 0.19531-0.61328 0.58594-0.61328 1.0078 0 0.42578 0.23828 0.8125 0.61328 1.0078 2.3516 1.2188 4.0898 3.3867 4.7656 5.9453l0.33984 1.2891c0.13281 0.5 0.58203 0.84375 1.0977 0.84375s0.96484-0.34766 1.0977-0.84375l0.34375-1.293c0.67578-2.5586 2.4141-4.7266 4.7656-5.9453 0.37891-0.19531 0.61328-0.58594 0.61328-1.0078zm-6.8164-4.3164c-0.81641 1.7031-2.0352 3.1836-3.5508 4.3164 1.5156 1.1289 2.7344 2.6133 3.5508 4.3164 0.81641-1.7031 2.0352-3.1836 3.5508-4.3164-1.5156-1.1289-2.7344-2.6133-3.5508-4.3164z"/>
<!-- Created by Kmg Design from Noun Project --></svg>