<svg fill="currentColor" xmlns="http://www.w3.org/2000/svg" xmlns:xlink="http://www.w3.org/1999/xlink" version="1.1" x="0px" y="0px" viewBox="0 0 64 80" style="enable-background:new 0 0 64 64;" xml:space="preserve"><g><path d="M63.03,35.49h-0.1l-7.74-19.3c0,0,0-0.01-0.01-0.01c-0.07-0.16-0.16-0.31-0.27-0.45c-0.04-0.06-0.09-0.11-0.14-0.17   c-0.07-0.08-0.15-0.15-0.23-0.21c-0.11-0.09-0.22-0.16-0.35-0.23c-0.07-0.04-0.14-0.07-0.21-0.1c-0.09-0.04-0.19-0.07-0.29-0.09   c-0.07-0.02-0.15-0.02-0.22-0.03c-0.09-0.01-0.17-0.04-0.26-0.04c-0.05,0-0.09,0.01-0.14,0.01h-17.7c-0.28-0.77-0.8-1.42-1.47-1.87   V8.33c0-1.18-0.96-2.13-2.13-2.13c-1.18,0-2.13,0.96-2.13,2.13V13c-0.67,0.45-1.19,1.1-1.47,1.87H11.57   c-0.03,0-0.06-0.01-0.09-0.01c-0.05,0-0.09,0.01-0.14,0.01h-0.95c-0.21,0-0.41,0.04-0.61,0.1c-0.02,0.01-0.03,0.01-0.05,0.02   c-0.39,0.13-0.73,0.36-0.99,0.67c-0.01,0.01-0.02,0.03-0.04,0.04c-0.13,0.16-0.23,0.34-0.31,0.53c0,0,0,0,0,0.01L0.9,35.51   C0.4,35.55,0,35.99,0,36.5c0,6.15,4.99,11.14,11.14,11.14c6.14,0,11.13-4.99,11.13-11.18c0-0.53-0.44-0.97-0.97-0.97h-0.1   l-6.56-16.36H29c0.09,0,0.18-0.02,0.27-0.03c0.12,0.1,0.24,0.18,0.37,0.27v31.72H23.8c-1.91,0-3.46,1.56-3.46,3.47v2.27   c0,0.54,0.44,0.97,0.97,0.97h20.93c0.53,0,0.97-0.43,0.97-0.97v-2.27c0-1.91-1.56-3.47-3.47-3.47H33.9V19.37   c0.12-0.08,0.25-0.17,0.36-0.26c0.09,0.01,0.17,0.03,0.26,0.03H49l-6.38,16.37c-0.5,0.04-0.9,0.48-0.9,0.99   c0,6.15,4.99,11.14,11.14,11.14c6.14,0,11.13-4.99,11.13-11.18C64,35.93,63.56,35.49,63.03,35.49z M52.69,21.42l5.64,14.07H47.21   L52.69,21.42z M10.96,21.42l5.64,14.07H5.48L10.96,21.42z"/></g><!-- Attribution retained: Noun Project --></svg>