<svg fill="currentColor" xmlns="http://www.w3.org/2000/svg" version="1.1" viewBox="-5.0 -10.0 110.0 135.0">
 <path d="m39.941 36.273c-0.10156-0.61328-0.17188-1.3398-0.17188-2.1836 0-0.625 0.51172-1.1367 1.1367-1.1367s1.1367 0.51172 1.1367 1.1367c0 0.67188 0.046875 1.2266 0.11328 1.7031-0.71484 0.13672-1.4531 0.28516-2.2148 0.47656zm20.285-2.1836c0-0.625-0.51172-1.1367-1.1367-1.1367s-1.1367 0.51172-1.1367 1.1367c0 0.67188-0.046875 1.2266-0.125 1.7031 0.71484 0.13672 1.4531 0.28516 2.2266 0.47656 0.10156-0.61328 0.17187-1.3398 0.17187-2.1836zm-10.227 44.32c-21.18 0-26.074-29.074-26.121-29.367-0.054687-0.33984 0.046875-0.68359 0.27734-0.94141 10.184-11.316 24.465-10.695 25.844-10.605 1.375-0.09375 15.66-0.71094 25.844 10.605 0.23047 0.25391 0.33203 0.60156 0.27734 0.94141-0.046875 0.29297-4.9414 29.367-26.121 29.367zm-2.2734-5.6836c0-12.863-10.176-22.055-10.609-22.441-0.46875-0.41797-1.1875-0.375-1.6055 0.09375s-0.375 1.1875 0.09375 1.6055c0.058593 0.050781 3.3398 3.0391 6.1016 7.8281-0.10938-0.058594-0.20703-0.12891-0.31641-0.18359-2.5195-1.3125-4.7695-1.6484-4.8633-1.6641-0.625-0.089844-1.1953 0.34375-1.2852 0.96094-0.089844 0.62109 0.33984 1.1992 0.95703 1.2891 0.019531 0.003906 1.9805 0.30469 4.1445 1.4297 1.4805 0.76562 2.6875 1.7383 3.5977 2.8906 0.91016 2.4844 1.5156 5.2422 1.5156 8.1875 0 0.62891 0.50781 1.1367 1.1367 1.1367s1.1367-0.50781 1.1367-1.1367zm10.566-12.91c2.7617-4.7891 6.043-7.7773 6.1016-7.8281 0.46875-0.41797 0.51172-1.1367 0.09375-1.6055s-1.1328-0.51172-1.6055-0.09375c-0.43359 0.38672-10.609 9.5781-10.609 22.441 0 0.62891 0.50781 1.1367 1.1367 1.1367s1.1367-0.50781 1.1367-1.1367c0-2.9453 0.60547-5.7031 1.5156-8.1875 0.91016-1.1523 2.1133-2.1289 3.6016-2.8945 2.1562-1.125 4.1172-1.4258 4.1367-1.4297 0.62109-0.089844 1.0508-0.66797 0.95703-1.2891-0.089843-0.62109-0.66797-1.0469-1.2852-0.96094-0.09375 0.015625-2.3477 0.34766-4.8594 1.6602-0.11328 0.058594-0.21484 0.12891-0.32422 0.1875zm4.0352 23.707c-1.6602 1.0352-3.4648 1.75-5.3984 2.1719-0.47656 0.10156-0.82813 0.48828-0.88672 0.97656-0.058594 0.48828 0.19141 0.94141 0.63672 1.1602 1.2383 0.58984 3.4219 1.4102 6.0352 1.4102 0.93359 0 1.9219-0.10156 2.9414-0.35156 0.011719 0 0.035156-0.011719 0.046875-0.011719-1.0898-0.86328-2.6602-2.5352-3.375-5.3516zm2.9336-2.8203c-0.35156 0-0.71484-0.035156-1.0586-0.10156 0.13672 5.1367 3.4648 6.8867 3.6484 6.9766 0.16016 0.078125 0.32813 0.11328 0.51172 0.11328 0.21484 0 0.43359-0.058594 0.625-0.18359 2.6367-1.75 2.3516-6.1836 1.75-9.3086-1.0586 1-3.0469 2.5-5.4766 2.5zm-1.3398-2.543c0.45312 0.19141 0.89844 0.27344 1.3398 0.27344 2.25 0 4.1719-2.1133 4.4219-2.3984 0.28516-0.32812 0.35156-0.78516 0.19141-1.1836-0.21484-0.52344-1.0664-1.2734-2.3164-2.1484-1.5586 1.7031-3.3281 3.25-5.3398 4.5117 0.71484 0.44141 1.3086 0.77344 1.7031 0.94141zm15.043 5.8867c-0.11328 0.18359-0.22656 0.36328-0.35156 0.53516-1.1602 1.6602-2.5898 3.1016-4.2617 4.2617-0.39844 0.27344-0.57812 0.77344-0.44141 1.2383 0.13672 0.47656 0.54688 0.80859 1.0352 0.82812 0.21484 0.011719 0.45313 0.011719 0.71484 0.011719 1.9883 0 5.1367-0.39844 7.9766-2.5117 0.046875-0.035156 0.089843-0.066406 0.13672-0.11328-0.17188-0.066406-0.32813-0.16016-0.47656-0.27344-0.30859-0.20313-2.2734-1.5469-4.3281-3.9766zm-1.6367-6.8984c2.3633 5.6914 7.0352 8.8633 7.2734 9.0234 0.19141 0.13672 0.41016 0.19141 0.625 0.19141 0.36328 0 0.72656-0.18359 0.94141-0.51172 1.9336-2.8867-1.4336-9.3164-3.8281-13.203-0.94141 2-2.6367 3.9883-5.0117 4.5zm3.2969-6.332c0.13672-0.41016 0.035156-0.86328-0.27344-1.1719-0.82812-0.82812-4.6836-1.5117-8.9414-2.0352-0.71484 1.1484-1.5 2.2734-2.3633 3.3516 2.3867 1.7148 2.7031 2.4766 2.9336 3.0234 0.058593 0.125 0.10156 0.26172 0.13672 0.39844 1.7617 0.375 3.2852 0.61328 4.0234 0.61328 3 0 4.3398-3.7617 4.4883-4.1836zm1.4219-24.988-6.3633-4.2383c-0.72656 0.35156-1.4219 0.81641-2.0352 1.3086 1.3281 1.0664 2.6367 2.2969 3.8867 3.6836 0.58984 0.66016 0.89844 1.5117 0.875 2.375 1.5664-0.92188 2.875-2.25 3.6367-3.125zm6.9531-7.8945c-1.4531 0.80859-3.6836 1.7031-6.4219 1.7031-0.625 0-1.2734-0.046875-1.8984-0.13672-1.1016-0.17188-2.1836-0.47656-3.2383-0.93359-0.058594 0.48828-0.078125 0.96484-0.10156 1.3984l6.6133 4.4102c2.8516-1.9102 4.3086-4.3984 5.0469-6.4414zm-24.59-23.105c-0.53516 0.18359-0.83984 0.71484-0.76172 1.2617 0.21484 1.3398 0.70312 2.9766 1.625 5.4648 0.51172 1.3984 1.0469 2.5781 1.6016 3.5586 0-1.8867 0.29688-4.2617 1.3984-6.7383-1.25-0.93359-2.1016-2.2969-2.5-3.0117-0.27344-0.48828-0.83984-0.70312-1.3633-0.53516zm-2.0469-2.3398c0.058594 0.011719 4.1484 0.56641 7.2969 3.3633 2.3633-3.4531 5.5898-5.2734 7.5586-6.1133-3.3633-1.6602-9.125-3.2148-15.316 0.66016-0.41016 0.26172-0.61328 0.73828-0.51172 1.2148 0.10156 0.46484 0.5 0.81641 0.97656 0.875zm8.207 6.332c-1.7266 3.5352-1.5156 6.9297-1.2344 8.6367 0.023437 0.14844 0.074218 0.28516 0.15234 0.41406 3.4375 5.5859 7.3164 8.7422 11.531 9.3789 0.53906 0.082031 1.0586 0.11719 1.5586 0.11719 3.9883 0 6.6797-2.3086 6.8086-2.4219 0.18359-0.16016 0.30859-0.37109 0.35938-0.60937 2.3828-10.715-8.9141-22.16-9.3984-22.641-0.30078-0.30469-0.75-0.41016-1.1562-0.27734-1.3984 0.45312-6.1523 2.332-8.625 7.4023zm28.609 53.469c-1.1953-1.7695-2.5508-3.4219-4.0625-4.9141-2.1992-2.168-4.7031-3.9844-7.4375-5.4453l-1.8633 7.4453c1.375 1.4883 2.8164 2.918 4.3594 4.2227 1.043 0.88281 2.1445 1.7188 3.2695 2.5156l5.7383-3.8242zm-24.043-12.016c-0.69141 1.6914-1.5117 3.4531-2.4766 5.2148 7.7383 1 8.6836 1.9414 9.2969 2.5586 0.058594 0.058594 0.11328 0.11328 0.16016 0.18359 0.55859 0 1.1016 0 1.6484-0.011719l1.7734-7.0664c-2.3281-0.53516-4.7031-0.83984-7.0898-0.92188-1.1016-0.035157-2.2031-0.011719-3.3086 0.046875zm19.188 18.035c-0.28516 3.25-1.8711 5.7812-3.1523 7.3281-0.375 0.45312-0.34375 1.1172 0.074219 1.5273 0.22266 0.22266 0.51172 0.33203 0.80078 0.33203 0.25781 0 0.51562-0.085938 0.72656-0.26172l4.1641-3.4688c1.9453-1.625 3.0625-4.0078 3.0625-6.5391v-2.7539l-5.6758 3.7852v0.054688zm-6.3711-23.227c0.47266 0.16016 0.9375 0.33203 1.3984 0.51562 0.98438 0.39453 1.9414 0.86328 2.8828 1.3633l6.5859-4.9414c-1.9922-1.3281-4.1484-2.3828-6.4297-3.1055-2.0312-0.64453-4.1328-1.0156-6.2617-1.1367zm6.125 3.3359c0.54688 0.76172 1.0664 1.543 1.5156 2.3594 0.94141 1.7031 1.6719 3.5273 2.168 5.4219 0.13281 0.50391 0.58984 0.84766 1.0977 0.84766 0.050781 0 0.097656-0.003906 0.14844-0.007813 0.56641-0.074218 0.99219-0.55469 0.99219-1.1289v-11.934zm-10.203-10.27c-1.9414 0.70312-3.875 1.5117-5.7383 2.4219-0.30859 1.4648-0.96484 4.1836-2.1133 7.4102 0.43359-0.023438 0.875-0.035157 1.3086-0.035157 0.38672 0 0.78516 0 1.1836 0.011719 0.72656 0.023438 1.4531 0.066407 2.1914 0.13672 0.18359-0.089844 0.35156-0.18359 0.52344-0.27344 1.4883-0.80859 2.9648-1.6914 4.4219-2.6016l-1.7734-7.0664zm-40.809 37.543c-1.9336-0.42188-3.7383-1.1367-5.3984-2.1719-0.71484 2.8164-2.2852 4.4883-3.375 5.3516 0.011719 0 0.035156 0.011718 0.046875 0.011718 1.0234 0.25 2.0117 0.35156 2.9414 0.35156 2.6133 0 4.7969-0.81641 6.0352-1.4102 0.44141-0.21484 0.69141-0.67188 0.63672-1.1602-0.058594-0.48828-0.41016-0.875-0.88672-0.97656zm-8.3281-4.9883c-2.4336 0-4.4219-1.5-5.4766-2.5-0.60156 3.125-0.88672 7.5586 1.75 9.3086 0.19141 0.125 0.41016 0.18359 0.625 0.18359 0.18359 0 0.35156-0.035156 0.51172-0.11328 0.18359-0.089843 3.5117-1.8398 3.6484-6.9766-0.33984 0.066406-0.70312 0.10156-1.0586 0.10156zm-4.4219-4.668c0.25 0.28516 2.1719 2.3984 4.4219 2.3984 0.44141 0 0.88672-0.078125 1.3398-0.27344 0.39844-0.17188 0.98828-0.5 1.7031-0.94141-2.0117-1.2617-3.7852-2.8086-5.3398-4.5117-1.25 0.875-2.1016 1.625-2.3164 2.1484-0.16016 0.39844-0.089844 0.85156 0.19141 1.1836zm-4.668 12.805c-1.6719-1.1602-3.1016-2.6016-4.2617-4.2617-0.125-0.17188-0.23828-0.35156-0.35156-0.53516-2.0586 2.4336-4.0234 3.7734-4.3281 3.9766-0.14844 0.11328-0.30859 0.20312-0.47656 0.27344 0.046875 0.046875 0.089843 0.078125 0.13672 0.11328 2.8398 2.1133 5.9883 2.5117 7.9766 2.5117 0.26172 0 0.5 0 0.71484-0.011719 0.48828-0.023438 0.89844-0.35156 1.0352-0.82812 0.13672-0.46484-0.046875-0.96484-0.44141-1.2383zm-2.9766-11.691c-2.375-0.51172-4.0664-2.5-5.0117-4.5-2.3984 3.8867-5.7617 10.316-3.8281 13.203 0.21484 0.32813 0.57812 0.51172 0.94141 0.51172 0.21484 0 0.43359-0.058593 0.625-0.19141 0.23828-0.16016 4.9102-3.3281 7.2734-9.0234zm8.2812-6.1836c-0.86328-1.0781-1.6484-2.2031-2.3633-3.3516-4.2617 0.52344-8.1133 1.2031-8.9414 2.0352-0.30859 0.30859-0.41016 0.76172-0.27344 1.1719 0.14844 0.42188 1.4883 4.1836 4.4883 4.1836 0.73828 0 2.2617-0.23828 4.0234-0.61328 0.035156-0.13672 0.078125-0.27344 0.13672-0.39844 0.22656-0.54688 0.54687-1.3086 2.9336-3.0234zm-4.6016-28.066c-0.61328-0.48828-1.3086-0.95313-2.0352-1.3086l-6.3633 4.2383c0.76172 0.875 2.0664 2.2031 3.6367 3.125-0.023438-0.86328 0.28516-1.7148 0.875-2.375 1.25-1.3867 2.5586-2.6133 3.8867-3.6836zm-3.793-4.332c-1.0586 0.45312-2.1367 0.76172-3.2383 0.93359-0.625 0.089844-1.2734 0.13672-1.8984 0.13672-2.7383 0-4.9648-0.89844-6.4219-1.7031 0.73828 2.0469 2.1914 4.5352 5.0469 6.4414l6.6133-4.4102c-0.023437-0.43359-0.046875-0.91016-0.10156-1.3984zm11.668-23.203c-0.39844 0.71484-1.25 2.0781-2.5 3.0117 1.1016 2.4766 1.3984 4.8516 1.3984 6.7383 0.55859-0.97656 1.0898-2.1602 1.6016-3.5586 0.92188-2.4883 1.4102-4.125 1.625-5.4648 0.078126-0.54688-0.22656-1.0781-0.76172-1.2617-0.52344-0.17188-1.0898 0.046875-1.3633 0.53516zm-3.8867 0.48828c3.1484-2.7969 7.2383-3.3516 7.2969-3.3633 0.47656-0.058593 0.875-0.41016 0.97656-0.875 0.10156-0.47656-0.10156-0.95312-0.51172-1.2148-6.1914-3.875-11.953-2.3164-15.316-0.66016 1.9648 0.83984 5.1914 2.6602 7.5586 6.1133zm-19.727 19.094c0.125 0.10938 2.8164 2.4219 6.8086 2.4219 0.5 0 1.0195-0.035157 1.5586-0.11719 4.2148-0.63672 8.0938-3.793 11.531-9.3789 0.078125-0.125 0.12891-0.26562 0.15234-0.41406 0.27734-1.707 0.48828-5.1016-1.2344-8.6367-2.4727-5.0664-7.2266-6.9453-8.625-7.4023-0.40625-0.13281-0.85156-0.027344-1.1562 0.27734-0.48047 0.48047-11.777 11.926-9.3984 22.641 0.050781 0.23828 0.17969 0.44922 0.35938 0.60937zm1.707 26.98c-2.7344 1.4609-5.2383 3.2773-7.4375 5.4453-1.5117 1.4922-2.8711 3.1445-4.0625 4.9141l5.7383 3.8242c1.1211-0.80078 2.2227-1.6328 3.2695-2.5156 1.543-1.3047 2.9844-2.7344 4.3594-4.2227l-1.8633-7.4453zm2.1445-0.77734 1.7734 7.0664c0.54688 0.011718 1.0898 0.011718 1.6484 0.011718 0.046875-0.066406 0.10156-0.125 0.16016-0.18359 0.61328-0.61328 1.5586-1.5586 9.2969-2.5586-0.96484-1.7617-1.7852-3.5234-2.4766-5.2148-1.1016-0.058593-2.2031-0.078125-3.3086-0.046875-2.3867 0.078125-4.7617 0.38672-7.0898 0.92188zm-8.7891 17.16v-0.054688l-5.6758-3.7852v2.7539c0 2.5352 1.1172 4.918 3.0625 6.5391l4.1641 3.4688c0.21094 0.17578 0.46875 0.26172 0.72656 0.26172 0.29297 0 0.58203-0.10938 0.80078-0.33203 0.41406-0.41406 0.44531-1.0781 0.074219-1.5273-1.2812-1.5508-2.8711-4.0781-3.1523-7.3281zm4.9727-22.707c0.46094-0.18359 0.92578-0.35547 1.3984-0.51562l1.8242-7.3047c-2.1289 0.125-4.2305 0.49609-6.2617 1.1367-2.2852 0.72266-4.4375 1.7773-6.4297 3.1055l6.5859 4.9414c0.94141-0.5 1.8984-0.96875 2.8828-1.3633zm-9.6562 11.434c0.050781 0.003906 0.097656 0.007813 0.14844 0.007813 0.50781 0 0.96484-0.34375 1.0977-0.84766 0.49609-1.8945 1.2266-3.7188 2.168-5.4219 0.44922-0.81641 0.96875-1.5977 1.5156-2.3594l-5.9219-4.4414v11.934c0 0.57031 0.42578 1.0547 0.99219 1.1289zm15.133-18.887-1.7734 7.0664c1.4531 0.91016 2.9336 1.7969 4.4219 2.6016 0.17187 0.089844 0.33984 0.18359 0.52344 0.27344 0.73828-0.066406 1.4648-0.11328 2.1914-0.13672 0.39844-0.011719 0.79688-0.011719 1.1836-0.011719 0.43359 0 0.875 0.011719 1.3086 0.035156-1.1484-3.2266-1.8086-5.9414-2.1133-7.4102-1.8633-0.91016-3.7969-1.7148-5.7383-2.4219z"/>
<!-- Created by Kmg Design from Noun Project --></svg>