<svg fill="currentColor" xmlns="http://www.w3.org/2000/svg" version="1.1" viewBox="-5.0 -10.0 110.0 135.0">
 <path d="m28.41 34.09v0.078125c-2.4414-1.25-4.9102-2.1484-7.0234-2.5234-0.57812-0.11328-1.1484-0.17188-1.6836-0.20312 0.82812-0.46484 1.75-0.81641 2.7383-1.0469 2.2266-0.51172 4.5898-0.32812 6.7969 0.52344-0.52344 1.0664-0.82812 2.1367-0.82812 3.1719zm-2.2383 11.594c-0.023437-0.30859-0.035156-0.625-0.035156-0.94141 0-2.25 0.45312-4.4414 1.3281-6.5117l0.69141-1.6016c-0.023438-0.023437-0.046875-0.035156-0.066406-0.046875-2.4766-1.3633-5-2.3164-7.1016-2.6914-3.2148-0.58984-4.4648 0.35156-4.9531 1.2383-0.48828 0.88672-0.60156 2.4414 1.625 4.8398 1.4531 1.5586 3.6133 3.1719 6.0898 4.5352 0.80859 0.44141 1.6133 0.83984 2.4219 1.1836zm52.43-14.035c0.58984-0.11328 1.1602-0.17188 1.6914-0.20313-0.82812-0.46484-1.75-0.81641-2.7383-1.0469-2.2266-0.51172-4.5898-0.32813-6.7969 0.52344 0.52344 1.0664 0.82813 2.1367 0.82813 3.1719v0.078125c2.4414-1.25 4.9102-2.1484 7.0117-2.5234zm0.41016 2.2383c-2.1016 0.375-4.625 1.3281-7.1016 2.6914-0.023437 0.011719-0.058594 0.035156-0.078125 0.046875l0.69141 1.6016c0.88672 2.0664 1.3398 4.2617 1.3398 6.5117 0 0.31641-0.011719 0.63672-0.035156 0.94141 0.80859-0.33984 1.6133-0.73828 2.4219-1.1836 2.4766-1.3633 4.6367-2.9766 6.0898-4.5352 2.2266-2.3984 2.1133-3.9531 1.625-4.8398-0.48828-0.88672-1.7383-1.8281-4.9531-1.2383zm-25.203 53.777c1.2656-0.71484 2.2305-1.7734 2.6953-3.0117-2.1289 0.46484-4.3711 0.57422-6.5078 0.57422-2.1328 0-4.3789-0.10937-6.5078-0.57422 0.46875 1.2422 1.4375 2.3047 2.7109 3.0195 0.035156 0.019531 0.074219 0.03125 0.10547 0.054687 1.0664 0.57422 2.332 0.91016 3.6914 0.91016s2.6211-0.33594 3.6836-0.91016c0.039062-0.027343 0.082031-0.042968 0.125-0.0625zm-6.4609 2.8984c0.74219 2.3281 1.7148 3.7578 2.6523 3.7578s1.9102-1.4258 2.6523-3.7578c-0.83984 0.22656-1.7305 0.34766-2.6523 0.34766s-1.8125-0.12109-2.6523-0.34766zm23.754-36.676c-2.2734 3.5664-5.8633 10.285-5.2148 16.191 0.53516 4.7617-0.35156 8.3398-2.6914 10.953-1.1836 1.3203-2.6133 2.2266-4.1719 2.8555-0.30469 2.2539-1.6914 4.2188-3.6914 5.4922-0.78125 3.3984-2.3242 7.207-5.332 7.207s-4.5508-3.8086-5.332-7.207c-2-1.2734-3.3867-3.2383-3.6914-5.4922-1.5586-0.62891-2.9883-1.5352-4.1719-2.8555-2.3398-2.6133-3.2266-6.1914-2.6914-10.953 0.64844-5.9102-2.9414-12.625-5.2148-16.191-1.3281 3.4531-3.0781 7.3281-4.7031 8.9414-2.2148 2.2148-0.61328 10.035 2.1133 16.602 7.8984 19.09 20.137 20.566 23.691 20.566 3.5586 0 15.797-1.4766 23.691-20.566 2.7266-6.5664 4.3281-14.387 2.1133-16.602-1.625-1.6133-3.375-5.4883-4.7031-8.9414zm-21.102 21.113c2.3242 0 4.0781-0.65234 5.2227-1.9414 1.1055-1.2461 1.4805-2.8906 1.5938-4.1211-2.6211 1.2188-5.0859 1.5195-6.8164 1.5195-2.7734 0-5.0742-0.69922-6.8164-1.5117 0.11328 1.2305 0.48828 2.8672 1.5938 4.1133 1.1445 1.2891 2.9023 1.9414 5.2227 1.9414zm-5.0703-52.449 3.293-2.0938h3.5586l3.293 2.0938c4.9727 3.1641 11.973 8.8359 11.973 11.543 0 1.7891-1.5391 3.4766-3.4883 5.6172-4.1719 4.582-10.418 11.48-6.8906 26.762-2.5469 1.3906-5 1.7109-6.6641 1.7109-2.8438 0-5.1094-0.85156-6.668-1.7031 3.5312-15.289-2.7148-22.188-6.8867-26.77-1.9492-2.1406-3.4883-3.8281-3.4883-5.6172 0-2.7031 7-8.375 11.973-11.543zm-1.7461 12.676c0 0.42578 0.23828 0.8125 0.61328 1.0078 2.3516 1.2188 4.0898 3.3867 4.7656 5.9453l0.33984 1.2891c0.13281 0.5 0.58203 0.84375 1.0977 0.84375s0.96484-0.34766 1.0977-0.84375l0.33984-1.2891c0.67578-2.5586 2.4141-4.7266 4.7656-5.9453 0.375-0.19531 0.61328-0.58203 0.61328-1.0078 0-0.42578-0.23828-0.8125-0.61328-1.0078-2.3516-1.2188-4.0898-3.3867-4.7656-5.9453l-0.33984-1.2891c-0.13281-0.5-0.58203-0.84375-1.0977-0.84375s-0.96484 0.34766-1.0977 0.84375l-0.33984 1.2891c-0.67578 2.5586-2.4141 4.7266-4.7656 5.9453-0.375 0.19531-0.61328 0.58203-0.61328 1.0078zm6.8164 4.3164c0.81641-1.7031 2.0352-3.1875 3.5508-4.3164-1.5156-1.1289-2.7344-2.6133-3.5508-4.3164-0.81641 1.7031-2.0352 3.1875-3.5508 4.3164 1.5156 1.1289 2.7344 2.6133 3.5508 4.3164zm-18.023-9.8516c0.18359 0.089844 0.35156 0.20312 0.53516 0.29688 3.1836-4.1133 9.5781-8.3164 11.191-9.3516l1.0234-0.66016c-4.0898-7.1914-12.328-12.887-23.934-16.512-9.1094-2.8516-16.977-3.4414-17.305-3.4648-0.53516-0.035156-1.0352 0.31641-1.1719 0.83984-0.14844 0.52344 0.10156 1.0664 0.57812 1.3086 16.875 8.4336 25.309 20.41 29.078 27.547zm38.465 9.4336c0.76172 1.7852 1.1484 3.6719 1.1484 5.6133 0 2.7383-0.79688 5.4219-2.2969 7.7617-2.4414 3.7852-6.4102 11.137-5.6719 17.828 0.45312 4.0781-0.23828 7.0781-2.125 9.1914-2.7031 3.0234-7.3281 3.4336-11.5 3.4336s-8.7969-0.41016-11.5-3.4336c-1.8867-2.1133-2.5781-5.1133-2.125-9.1914 0.73828-6.6914-3.2266-14.047-5.6719-17.828-1.5-2.3398-2.2969-5.0234-2.2969-7.7617 0-1.9414 0.38672-3.8281 1.1484-5.6133l1.4219-3.3164c0.58984 1.8984 2.0898 3.5664 3.7852 5.4336 4.1602 4.5664 9.8633 10.816 6.1836 25.535-0.011718 0.046875-0.023437 0.089844-0.023437 0.13672-0.023438 0.18359-0.54688 4.6016 2.1484 7.6484 1.5898 1.7969 3.9219 2.7148 6.9336 2.7148s5.3398-0.92188 6.9336-2.7148c2.6914-3.0469 2.1719-7.4648 2.1484-7.6484 0-0.046874-0.011719-0.089843-0.023437-0.13672-3.6836-14.715 2.0234-20.965 6.1836-25.535 1.6914-1.8633 3.1836-3.5352 3.7852-5.4219l1.4219 3.3086zm-31.828 16.332-1.1367-5.6836c-0.058593-0.30078-0.23828-0.5625-0.49219-0.73047-0.25781-0.16797-0.56641-0.22266-0.86719-0.15625-0.40625 0.09375-1.043 0.16406-1.7812 0-0.82422-0.18359-1.4219-0.58594-1.7812-0.89062-0.48047-0.40625-1.1953-0.35156-1.6016 0.125-0.40625 0.47656-0.35156 1.1953 0.125 1.6016 0.79688 0.67969 1.75 1.1562 2.7656 1.3828 0.52734 0.11719 1.0664 0.16016 1.6133 0.14844l0.92969 4.6484c0.10938 0.53906 0.58203 0.91406 1.1133 0.91406 0.074219 0 0.14844-0.007812 0.22266-0.023437 0.61719-0.125 1.0156-0.72266 0.89062-1.3359zm30.434-7.332c-0.40625-0.47656-1.125-0.53516-1.6016-0.125-0.35937 0.30469-0.95703 0.71094-1.7812 0.89062-0.73437 0.16406-1.3711 0.09375-1.7812 0-0.30078-0.066406-0.60937-0.007813-0.86719 0.15625-0.25391 0.16797-0.43359 0.42969-0.49219 0.73047l-1.1367 5.6836c-0.125 0.61719 0.27734 1.2148 0.89062 1.3359 0.074218 0.015625 0.14844 0.023437 0.22266 0.023437 0.53125 0 1.0039-0.37109 1.1133-0.91406l0.92969-4.6484c0.54688 0.019532 1.0859-0.03125 1.6133-0.14844 1.0117-0.22656 1.9688-0.70312 2.7656-1.3828 0.47656-0.40625 0.53516-1.125 0.125-1.6016zm28.637-47.285c-0.13672-0.52344-0.63672-0.875-1.1719-0.83984-0.32812 0.023438-8.1914 0.61328-17.309 3.4648-11.602 3.625-19.84 9.3164-23.934 16.512l1.0234 0.66016c1.6133 1.0352 8.0234 5.2383 11.203 9.3633 0.17188-0.11328 0.35156-0.21484 0.52344-0.30859 3.7734-7.1367 12.203-19.113 29.078-27.547 0.47656-0.23828 0.72656-0.78516 0.57812-1.3086z"/>
<!-- Created by Kmg Design from Noun Project --></svg>