<svg fill="currentColor" xmlns="http://www.w3.org/2000/svg" version="1.1" viewBox="-5.0 -10.0 110.0 135.0">
 <path d="m99.461 20.855-0.13281-6.9766c-0.011719-0.52734-0.42188-0.94922-0.94922-0.97656l-6.9648-0.35547c-12.188-0.61719-26.422-2.7578-37.035-9.1641l-3.8672-2.3359c-0.32422-0.19531-0.70703-0.19531-1.0312 0l-3.8633 2.3359c-10.617 6.4062-24.844 8.5469-37.035 9.1641l-6.9727 0.35547c-0.51953 0.027344-0.9375 0.44922-0.94922 0.97656l-0.125 6.9766c-0.67969 36.062 8.1953 69.293 47.656 77.879l1.5898 0.34375c0.14844 0.03125 0.28125 0.03125 0.42578 0l1.5898-0.34375c39.473-8.5859 48.344-41.816 47.664-77.879zm-49.246 69.543c-0.15234 0.03125-0.28516 0.03125-0.43359 0-31.879-7.0391-41.289-32.531-40.781-68.453 0.003906-0.51953 0.41797-0.94922 0.9375-0.98047 13.027-0.73438 27.871-3.1562 39.555-10.023 0.31641-0.1875 0.69141-0.1875 1.0156 0 11.68 6.8672 26.523 9.2891 39.551 10.023 0.52734 0.03125 0.9375 0.46094 0.94141 0.98047 0.50781 35.922-8.9023 61.414-40.785 68.453zm19.004-41.953v8.7852c0 2.4922-2.043 4.5391-4.5391 4.5391-2.5 0-4.543-2.043-4.543-4.5391v-1.8477c0 2.5-2.043 4.5391-4.543 4.5391-0.92578 0-1.793-0.28125-2.5156-0.76172 1.2344-1.8047 1.7109-4.1094 1.1055-6.3672-0.5-1.8516-1.6445-3.3711-3.1289-4.3789-1.8047-1.2227-4.1016-1.6875-6.3477-1.0898l-2.7344 0.73438-8.293 2.2266c-0.27344 0.070313-0.53516 0.16016-0.79688 0.25391v-3.9336c0-2.4922 2.043-4.5391 4.543-4.5391s4.543 2.043 4.543 4.5391v-2.4648c0-2.5 2.043-4.543 4.5391-4.543 2.5 0 4.543 2.043 4.543 4.543v2.4648c0-2.4922 2.043-4.5391 4.5391-4.5391 2.5 0 4.543 2.043 4.543 4.5391v1.8477c0-2.4922 2.043-4.5391 4.543-4.5391 2.5-0.007812 4.543 2.0352 4.543 4.5312zm-4.5391 16.52c1.6953 0 3.2617-0.54688 4.5391-1.4805v2.8594c0 2.082-0.45312 3.8672-1.457 5.6953l-1.6328 2.9648c-1.0039 1.8242-1.457 3.6133-1.457 5.6875v0.84375c-4.457 2.6211-9.3984 4.4336-14.672 5.6328-4.0938-0.9375-7.9961-2.2344-11.617-4v-1.7148c0-1.8203-0.35547-3.4531-1.0898-5l-0.03125-0.058594-0.011719-0.023437-0.011719-0.03125-0.015625-0.027344-0.027344-0.054688v-0.003906l-0.015624-0.03125-0.015626-0.027344-0.027343-0.050781-0.027344-0.058593-0.003906-0.011719-0.015625-0.027344-0.027344-0.050781-0.015625-0.039063-0.003906-0.003906-0.03125-0.054687v-0.011719l-0.015625-0.023438-0.015625-0.027343-0.015625-0.03125-0.015625-0.027344-0.011719-0.023438-0.039062-0.070312-0.015626-0.023438-0.039062-0.066406-0.023438-0.042969-0.042968-0.070312-0.027344-0.019531-0.042969-0.078126-0.015625-0.015624-0.015625-0.03125-0.027343-0.042969-0.015626-0.027344-0.058593-0.089844v-0.003906l-0.003907-0.011719-0.054687-0.078125v-0.011719l-0.003906-0.003906-0.054688-0.078125-0.007812-0.015625-0.011719-0.015625-0.054688-0.082031-0.003906-0.003906c-0.023437-0.027344-0.039062-0.054688-0.058594-0.089844l-0.003906-0.003906-0.011718-0.023438-0.042969-0.054687-0.011719-0.023438-0.007812-0.011719-0.066407-0.089843-0.65234-0.91016c-0.86719-1.2109-1.4141-2.3789-1.8047-3.8164l-2.7617-10.324c-0.71875-2.6797 0.87891-5.4492 3.5586-6.1602l3.9141-1.0508 7.1133-1.9062c2.4102-0.64844 4.9141 0.80078 5.5625 3.2109 0.5625 2.0977-0.46094 4.2695-2.3242 5.2227-0.027344 0.011718-0.050781 0.023437-0.078125 0.039062-0.25781 0.12109-0.52734 0.22656-0.8125 0.30078l-7.1133 1.9062 1.8086 6.7539h1.1406c4.3398 0 7.9531 3.2344 8.5391 7.4219 0.097656 0.69141 0.67969 1.1992 1.3828 1.1992h0.40625c0.41797 0 0.77734-0.16406 1.0508-0.47656 0.27344-0.3125 0.39062-0.69141 0.32812-1.1055-0.71875-5.332-5.0078-9.5547-10.383-10.156l-0.36719-1.375 4.0352-1.0781c0.73047-0.19531 1.4102-0.49219 2.0234-0.87109 1.332 1.0742 3.0195 1.7227 4.8555 1.7227 1.1836 0 2.3086-0.26953 3.3164-0.74609 1.4102 1.5859 3.4766 2.5898 5.7656 2.5898zm-16.227-32.781v-7.1836c0-0.85547 0.69141-1.5469 1.5469-1.5469s1.5469 0.69141 1.5469 1.5469v7.1836c0 0.85547-0.69141 1.5469-1.5469 1.5469-0.85938 0-1.5469-0.69141-1.5469-1.5469zm8.793 0.75 1.8594-6.9375c0.22656-0.82812 1.0703-1.3164 1.8906-1.0977 0.82812 0.21875 1.3164 1.0703 1.0977 1.8906l-1.8594 6.9453c-0.21875 0.82031-1.0703 1.3086-1.8906 1.0898-0.82812-0.21875-1.3164-1.0664-1.0977-1.8906zm14.57-1.6758-3.5898 6.2266c-0.42578 0.73438-1.375 0.98828-2.1094 0.55859-0.73828-0.42578-0.99219-1.3711-0.5625-2.1094l3.5938-6.2227c0.42578-0.73438 1.3711-0.98828 2.1055-0.55859 0.73828 0.42188 0.98828 1.3711 0.5625 2.1055zm-33.914-4.4688c-0.21875-0.82031 0.27344-1.6719 1.0977-1.8906 0.82031-0.21875 1.6719 0.26953 1.8906 1.0977l1.8594 6.9375c0.21875 0.82031-0.26953 1.6719-1.0898 1.8906-0.82812 0.21875-1.6719-0.26953-1.8906-1.0898zm-6.1289 10.695-3.5938-6.2266c-0.42578-0.73437-0.17578-1.6836 0.5625-2.1055 0.73437-0.42969 1.6836-0.17578 2.1094 0.55859l3.5898 6.2227c0.42578 0.73828 0.17578 1.6836-0.55859 2.1094-0.73828 0.42578-1.6836 0.17578-2.1094-0.55859z"/>
<!-- Attribution retained: Noun Project --></svg>