<svg fill="currentColor" xmlns="http://www.w3.org/2000/svg" xmlns:xlink="http://www.w3.org/1999/xlink" version="1.1" x="0px" y="0px" viewBox="0 0 100 125" style="enable-background:new 0 0 100 100;" xml:space="preserve"><g><path d="M70.3,53.3H55.1v15.2H44.9V53.3H29.7V43.1h15.2V27.9h10.2v15.2h15.2V53.3z M91.3,13c-4.8-5.7-11.4-8.3-18.2-8.3   c-6.8,0-13.4,2.8-18.6,8.3l-4.4,4.7L45.7,13c-5-5.4-11.8-8.3-18.6-8.3c-7,0-13.8,2.8-19.1,8.7c-9.9,11.1-9.2,29,0.9,39.8l37.9,40.8   c1.8,1.9,4.6,1.9,6.1,0l38.3-41.3C101.6,41.7,101.6,23.8,91.3,13"/></g><!-- Attribution retained: Noun Project --></svg>