<svg fill="currentColor" xmlns="http://www.w3.org/2000/svg" version="1.1" viewBox="-5.0 -10.0 110.0 135.0">
 <path d="m53.449 56.086c-1.5117 0.54687-2.6914 1.5625-3.4492 2.3594-0.75781-0.79687-1.9375-1.8125-3.4492-2.3594-0.65625-0.23828-1.0977-0.91016-1.0977-1.668 0-0.85156 0.57812-1.5781 1.4023-1.7734 1.0312-0.24609 2.0898-0.36719 3.1445-0.36719 1.0781 0 2.1602 0.12891 3.2148 0.38672 0.76953 0.1875 1.3281 0.92578 1.3281 1.7539v0.003906c0 0.75781-0.44141 1.4297-1.0938 1.668zm-3.4492 5.7852c-1.0508 0.81641-3.0742 1.7656-6.8164 1.7656-0.13672 0-0.25-0.015625-0.38281-0.019531 0.74609 1.6016 2.0078 2.8945 3.6172 3.6523 1.3047 0.60547 2.5117 0.91406 3.582 0.91406s2.2812-0.30859 3.5898-0.91797c1.6055-0.75781 2.8633-2.0469 3.6133-3.6484-0.12891 0.003906-0.24609 0.019531-0.38281 0.019531-3.7461 0-5.7695-0.94922-6.8164-1.7656zm18.957-22.23c0.085938 3.2305-0.55859 8.9336-5.3203 13.168v-0.53516c0-3.1211-2.3906-4.9961-4.5-6.6523-2.7812-2.1836-3.7188-3.2031-2.4805-5.2656 3.7578-6.2617 1.2617-9.0469 0.96484-9.3438-0.43359-0.43359-1.1172-0.42969-1.5625-0.011719-0.44922 0.41797-0.46875 1.1289-0.070313 1.5898 0.015625 0.019531 1.5469 1.8828-1.2812 6.5938-2.3867 3.9727 0.61719 6.3281 3.0273 8.2227 1.8672 1.4648 3.6289 2.8477 3.6289 4.8633 0 6.1406-0.19141 9.0898-4.5469 9.0898-3.0938 0-4.625-0.71094-5.3086-1.1992 0.5625-0.625 1.5156-1.5078 2.7188-1.9453 1.5508-0.56641 2.5898-2.0938 2.5898-3.8047 0-1.8984-1.2617-3.5273-3.0664-3.9609-2.4336-0.58984-4.9805-0.59766-7.418-0.019531-1.8555 0.4375-3.1523 2.0781-3.1523 3.9844 0 1.7109 1.0391 3.2422 2.5898 3.8047 1.2031 0.4375 2.1523 1.3164 2.7148 1.9414-0.69922 0.5-2.2266 1.2031-5.3047 1.2031-4.3516 0-4.5469-2.9492-4.5469-9.0898 0-2.0156 1.7617-3.3984 3.6289-4.8633 2.4102-1.8945 5.4102-4.25 3.0273-8.2227-2.8203-4.7031-1.3047-6.5664-1.3086-6.5664 0.44531-0.44531 0.44531-1.1641 0-1.6055-0.44531-0.44531-1.1641-0.44531-1.6055 0-0.29688 0.29688-2.793 3.082 0.96484 9.3438 1.2344 2.0586 0.30078 3.0781-2.4805 5.2656-2.1094 1.6562-4.5 3.5312-4.5 6.6523v0.53906c-4.7617-4.2344-5.4062-9.9375-5.3203-13.172 0.16797-6.2539 3.1914-12.688 7.0352-14.969 7.0273-4.1719 10.941-0.34766 11.102-0.1875 0.21094 0.22266 0.50781 0.34375 0.8125 0.34375 0.29688-0.039062 0.60156-0.125 0.82031-0.33984 0.16406-0.16406 4.082-3.9883 11.105 0.18359 3.8438 2.2812 6.8711 8.7148 7.0352 14.969zm-28.102 0.92188c-0.19141-0.59766-0.83203-0.92578-1.4297-0.73438-0.30078 0.097656-0.90625 0.23047-1.5625 0.003906-1.0977-0.37109-1.5234-1.4609-1.5703-1.5859-0.21484-0.58984-0.86719-0.89062-1.457-0.67969-0.58984 0.21484-0.89453 0.86719-0.67969 1.457 0.19141 0.52344 0.96875 2.2812 2.9766 2.9609 0.47656 0.16016 0.98047 0.24219 1.4883 0.24219 0.50391 0 1.0117-0.078124 1.4961-0.23437 0.59766-0.19141 0.92578-0.83203 0.73437-1.4297zm24.309-2.9922c-0.58984-0.21484-1.2422 0.089844-1.457 0.67969-0.046875 0.125-0.46875 1.2148-1.5703 1.5859-0.65625 0.22266-1.2617 0.09375-1.5586-0.003907-0.59375-0.1875-1.2383 0.13672-1.4297 0.73438-0.19141 0.59766 0.13672 1.2383 0.73437 1.4297 0.48828 0.15625 0.99609 0.23438 1.4961 0.23438 0.50781 0 1.0117-0.078125 1.4883-0.24219 1.5938-0.53906 2.582-1.8828 2.9766-2.9609 0.21484-0.58984-0.089844-1.2422-0.67969-1.457zm34.836 19.246c0 0.55859-0.39844 1.0352-0.95312 1.125-0.53516 0.089844-1.0781-0.22656-1.2617-0.76172 0 0-0.22656-0.52344-1.0352-1.1836-0.81641-0.67188-2.2148-1.4883-4.5664-2.0898-0.76172-0.19141-1.6016-0.375-2.5664-0.51172-6.0469-0.86328-9.0352-3.0117-10.285-4.2148-0.45312-0.43359-1.1719-0.42188-1.6133 0.035156-0.43359 0.44141-0.42188 1.1719 0.035156 1.6016 1.4414 1.3984 4.8633 3.875 11.547 4.8281 1.6133 0.22656 2.8516 0.55859 3.7852 0.91016 1.75 5.6367 3.2266 14.262-1.2617 20.262-0.28516 0.375-0.77344 0.54688-1.2266 0.41016-0.45312-0.13672-0.78516-0.53516-0.81641-1.0117 0-0.011719-0.058594-0.75-0.38672-1.9531v-0.011719c-0.67188-2.4531-2.4414-6.8398-7.1719-10.887-4.4102-3.7852-6.125-6.9531-6.7969-8.9531-0.19141-0.60156-0.83984-0.92188-1.4336-0.72656-0.60156 0.20312-0.92188 0.83984-0.72656 1.4414 1.1016 3.3086 3.6133 6.6602 7.4766 9.9648 6.1914 5.3086 6.7617 11.25 6.7734 11.297l0.18359 2.4336c-0.69141 1.3086-1.6016 2.6016-2.7969 3.8086-6.0234 6.0117-7.625 10.184-7.625 11.691 0 0.58984-0.45312 1.0898-1.0469 1.1367-0.58984 0.046875-1.125-0.375-1.2148-0.96484-0.011719-0.11328-0.30859-1.9766-0.30859-5.3086 0-0.44141 0.011719-0.93359 0.023438-1.4336 0.035156-1.4336 0.10156-3.0664 0.27344-4.8984 0.53516-5.8281-0.72656-7.5898-2.0586-9.4648-1.4219-1.9766-2.875-4.0117-2.5781-9.6914 0.035156-0.625-0.44141-1.1602-1.0781-1.1914-0.625-0.046875-1.1602 0.44141-1.1914 1.0664-0.32812 6.4766 1.5117 9.0664 3 11.137 1.1719 1.6484 2.1016 2.9531 1.6484 7.9414-0.31641 3.5898-0.33984 6.4648-0.26172 8.5352-1.1602 1.9883-2.0234 3.9648-2.0234 5.4102 0 0.52344-0.36328 0.98828-0.875 1.1016-0.51172 0.125-1.0469-0.125-1.2734-0.58984-0.078125-0.16016-1.5117-3.0781-1.5781-6.6602-1.9648 2.0586-4.2266 4.9883-4.2266 7.2852 0 0.52344-0.36328 0.98828-0.875 1.1016-0.51172 0.125-1.0469-0.125-1.2734-0.58984-0.078125-0.16016-1.1602-2.3867-1.3281-5.75 0.73828-0.79688 1.5469-1.6484 2.4766-2.5781 3.1367-3.1367 5.3516-6.5 6.5781-10 0.20312-0.58984-0.10156-1.2383-0.70313-1.4531-0.58984-0.20313-1.2383 0.11328-1.4414 0.70312-1.1133 3.1719-3.1367 6.25-6.0352 9.1484l-0.71484 0.71484c-6.9102 7.0352-8.1016 10.184-8.1133 10.215-0.16016 0.44141-0.58984 0.75-1.0664 0.75h-0.011719c-0.48828 0-0.91016-0.30859-1.0664-0.76172-0.011719-0.023438-1.1914-3.1719-8.1016-10.203l-0.71484-0.71484c-2.8984-2.8984-4.9219-5.9766-6.0352-9.1484-0.20312-0.58984-0.85156-0.91016-1.4414-0.70312-0.60156 0.21484-0.91016 0.86328-0.70312 1.4531 1.2266 3.5 3.4414 6.8633 6.5781 10 0.93359 0.93359 1.7383 1.7852 2.4766 2.5781-0.17188 3.3633-1.25 5.5898-1.3281 5.75-0.22656 0.46484-0.76172 0.71484-1.2734 0.58984-0.51172-0.11328-0.875-0.57812-0.875-1.1016 0-2.2969-2.2617-5.2266-4.2266-7.2852-0.066406 3.5781-1.5 6.5-1.5781 6.6602-0.22656 0.46484-0.76172 0.71484-1.2734 0.58984-0.51172-0.11328-0.875-0.57812-0.875-1.1016 0-1.4414-0.86328-3.4102-2.0234-5.4102 0.078126-2.0664 0.058594-4.9414-0.26172-8.5352-0.45312-4.9883 0.47656-6.2969 1.6484-7.9414 1.4883-2.0664 3.3281-4.6602 3-11.137-0.035156-0.625-0.56641-1.1133-1.1914-1.0664-0.63672 0.035156-1.1133 0.56641-1.0781 1.1914 0.29688 5.6836-1.1602 7.7148-2.5781 9.6914-1.3281 1.875-2.5898 3.6367-2.0586 9.4648 0.17188 1.8281 0.23828 3.4648 0.27344 4.8984 0.10156 4.2148-0.26172 6.6133-0.28516 6.7383-0.089843 0.58984-0.63672 1.0117-1.2148 0.96484-0.58984-0.046875-1.0469-0.54688-1.0469-1.1367 0-1.5117-1.6016-5.6836-7.625-11.691-1.1914-1.2031-2.1016-2.5-2.7969-3.8086l0.18359-2.4336c0.011719-0.046874 0.57813-5.9883 6.7734-11.297 3.8633-3.3086 6.375-6.6602 7.4766-9.9648 0.19141-0.60156-0.125-1.2383-0.72656-1.4414-0.58984-0.19141-1.2383 0.125-1.4336 0.72656-0.67188 2-2.3867 5.1719-6.7969 8.9531-4.7266 4.0469-6.5 8.4336-7.1719 10.887v0.011718c-0.32812 1.2031-0.38672 1.9414-0.38672 1.9531-0.046876 0.47656-0.36328 0.875-0.81641 1.0117-0.45312 0.125-0.94141-0.035156-1.2266-0.41016-4.5-5.9883-3.0117-14.625-1.2617-20.262 0.93359-0.35156 2.1719-0.68359 3.7852-0.91016 6.6836-0.95312 10.102-3.4336 11.547-4.8281 0.45312-0.43359 0.46484-1.1602 0.035157-1.6016-0.44141-0.45313-1.1602-0.46484-1.6133-0.035157-1.25 1.2031-4.2383 3.3516-10.285 4.2148-0.96484 0.13672-1.8086 0.31641-2.5664 0.51172-4.7031 1.2148-5.6016 3.2852-5.6133 3.3086-0.20312 0.5-0.75 0.80859-1.2852 0.70312-0.53516-0.10156-0.92187-0.55859-0.92187-1.1016 0-4.3633 3.5234-8.0234 7.1484-10.625 1.4531 0.55859 3.2266 0.93359 5.3984 0.93359 1.1367 0 2.3398-0.089844 3.5781-0.29688 0.625-0.10156 1.0469-0.68359 0.94141-1.3086-0.089844-0.61328-0.68359-1.0469-1.2969-0.94141-1.1367 0.18359-2.2148 0.27344-3.2266 0.27344-1.0898 0-2.0664-0.10156-2.9219-0.28516 0 0 0.011719 0 0.011719-0.011719-4.7266-0.97656-6.0781-4.1914-6.1484-4.3633-0.16016-0.39844-0.078125-0.83984 0.20312-1.1719 0.27344-0.31641 0.71484-0.45312 1.125-0.35156 1.1602 0.28516 2.4219 0.125 3.6367-0.22656-0.023438 0.023438-0.058594 0.023438-0.078125 0.035156 1.5117 0.64844 3.375 1.1016 5.6367 1.1016 2.0117 0 4.1602-0.375 6.3867-1.1133 0.58984-0.20313 0.92188-0.83984 0.71484-1.4414-0.19141-0.58984-0.82812-0.91016-1.4336-0.71484-1.9883 0.66016-3.8984 1-5.6719 1-0.875 0-1.6836-0.078126-2.4219-0.22656-4.9336-0.93359-6.8281-4.5586-6.9219-4.75-0.19141-0.38672-0.16016-0.85156 0.10156-1.1914 0.27344-0.35156 0.70312-0.52344 1.1367-0.43359 3.5898 0.70312 8.9883-4.4219 11.965-7.9883-0.023437-0.023438-0.023437-0.058594-0.035156-0.078125 2.0234 3.7617 6.5234 5.6016 6.7383 5.6914 0.13672 0.058594 0.28516 0.078125 0.42187 0.078125 0.45313 0 0.875-0.27344 1.0586-0.71484 0.22656-0.57812-0.058594-1.2383-0.63672-1.4766-0.046876-0.011719-4.2383-1.7383-5.75-4.9766 1.9102-0.43359 5.8164-0.96484 7.9336 1.1602 0.22656 0.21484 0.51172 0.32812 0.80859 0.32812s0.57812-0.11328 0.80859-0.32812c0.44141-0.44141 0.44141-1.1719 0-1.6133-2.3984-2.3984-6.0898-2.3984-8.6133-2.0352 0.61328-0.68359 1.4648-1.3516 2.5664-1.7031 2.1914-0.69141 4.8984 0 8.0234 2.0781 0.52344 0.35156 1.2266 0.20312 1.5664-0.31641 0.35156-0.52344 0.20312-1.2266-0.31641-1.5664-3.7266-2.5-7.0898-3.2852-9.9883-2.3516-0.98828 0.31641-1.8086 0.80859-2.5 1.3633-2.4102-1.4102-3.8398-4.2148-3.9219-4.375-0.22656-0.44141-0.13672-0.96484 0.20312-1.3164 1.3398-1.3281 4.4219-2.2852 7.375-2.9219 0.72656 1.0781 1.6836 2.3633 2.7969 3.6367 0.21484 0.25 0.53516 0.38672 0.85156 0.38672 0.26172 0 0.53516-0.10156 0.75-0.28516 0.46484-0.42188 0.51172-1.1367 0.10156-1.6016-0.78516-0.88672-1.4766-1.7969-2.0469-2.6133h0.011719c-1.2617-1.75-2.0352-3.125-2.0664-3.1914-0.17188-0.30859-0.19141-0.68359-0.058594-1.0117 0.14844-0.31641 0.43359-0.55859 0.77344-0.64844 2.5117-0.63672 5.8867-0.023438 8.5898 0.73828 0.64844 2.4883 2.4766 8.1914 6.2617 11.922 0.21484 0.22656 0.51172 0.32812 0.79688 0.32812 0.29688 0 0.58984-0.10156 0.80859-0.32812 0.44141-0.45312 0.44141-1.1719-0.011718-1.6133-2.8281-2.7969-4.4531-6.8867-5.2617-9.4883-0.44141-1.4531-0.64844-2.4414-0.66016-2.5-0.066407-0.33984 0.023437-0.68359 0.23828-0.94141 0.21484-0.27344 0.53516-0.42188 0.875-0.42188 5.8516 0 11.488 5.8867 13.637 8.4219 2.1484-2.5352 7.7852-8.4219 13.637-8.4219 0.33984 0 0.66016 0.14844 0.875 0.42188 0.21484 0.26172 0.30859 0.60156 0.23828 0.94141-0.011719 0.058594-0.21484 1.0469-0.66016 2.5-0.80859 2.6016-2.4336 6.6914-5.2617 9.4883-0.45312 0.44141-0.45312 1.1602-0.011719 1.6133 0.21484 0.22656 0.51172 0.32812 0.80859 0.32812 0.28516 0 0.57812-0.10156 0.79688-0.32812 3.7852-3.7266 5.6133-9.4336 6.2617-11.922 2.7031-0.76172 6.0664-1.375 8.5898-0.73828 0.33984 0.089844 0.625 0.32812 0.77344 0.64844 0.13672 0.32812 0.11328 0.70312-0.058594 1.0117-0.035156 0.066406-0.80859 1.4414-2.0664 3.1914h0.011718c-0.56641 0.81641-1.2617 1.7266-2.0469 2.6133-0.41016 0.46484-0.36328 1.1836 0.10156 1.6016 0.21484 0.18359 0.48828 0.28516 0.75 0.28516 0.31641 0 0.63672-0.13672 0.85156-0.38672 1.1133-1.2734 2.0664-2.5586 2.7969-3.6367 2.9531 0.63672 6.0352 1.5898 7.375 2.9219 0.33984 0.35156 0.43359 0.875 0.20312 1.3164-0.078124 0.16016-1.5 2.9648-3.9219 4.3633-0.69141-0.54688-1.5117-1.0352-2.5-1.3516-2.8984-0.93359-6.2617-0.14844-9.9883 2.3516-0.52344 0.33984-0.67188 1.0469-0.31641 1.5664 0.33984 0.52344 1.0469 0.67188 1.5664 0.31641 3.125-2.0781 5.8281-2.7734 8.0234-2.0781 1.1016 0.35156 1.9531 1.0234 2.5664 1.7031-2.5234-0.36328-6.2148-0.36328-8.6133 2.0352-0.44141 0.44141-0.44141 1.1719 0 1.6133 0.22656 0.21484 0.51172 0.32812 0.80859 0.32812 0.29688 0 0.57813-0.11328 0.80859-0.32812 2.1133-2.125 6.0234-1.5898 7.9336-1.1602-1.5117 3.2383-5.7031 4.9648-5.75 4.9766-0.57812 0.23828-0.86328 0.89844-0.63672 1.4766 0.18359 0.44141 0.60156 0.71484 1.0586 0.71484 0.13672 0 0.28516-0.023438 0.42188-0.078125 0.21484-0.089844 4.6484-1.9102 6.7031-5.6133 2.9766 3.5664 8.3398 8.6914 11.965 7.9883 0.43359-0.089844 0.875 0.078125 1.1367 0.43359 0.26172 0.33984 0.30859 0.80859 0.10156 1.1914-0.089844 0.19141-1.9883 3.8164-6.9219 4.75-0.73828 0.14844-1.5469 0.22656-2.4219 0.22656-1.7734 0-3.6836-0.33984-5.6719-1-0.60156-0.19141-1.2383 0.125-1.4336 0.71484-0.20312 0.60156 0.125 1.2383 0.71484 1.4414 2.2266 0.73828 4.375 1.1133 6.3867 1.1133 2.2617 0 4.125-0.45312 5.6367-1.1016-0.011718 0-0.035156-0.011718-0.046874-0.023437 1.2031 0.35156 2.4531 0.5 3.6016 0.21484 0.41016-0.10156 0.85156 0.035157 1.125 0.35156 0.28516 0.32812 0.36328 0.77344 0.20312 1.1719-0.066406 0.17188-1.4219 3.3867-6.1484 4.3633 0 0.011719 0.011718 0.011719 0.011718 0.011719-0.85156 0.18359-1.8281 0.28516-2.9219 0.28516-1.0117 0-2.0898-0.089844-3.2266-0.27344-0.61328-0.10156-1.2031 0.32812-1.2969 0.94141-0.10156 0.625 0.31641 1.2031 0.94141 1.3086 1.2383 0.20312 2.4414 0.29688 3.5781 0.29688 2.1719 0 3.9414-0.375 5.3984-0.93359 3.625 2.6016 7.1484 6.2617 7.1484 10.625zm-28.773-17.238c-0.1875-7.082-3.6133-14.172-8.1484-16.863-6.6641-3.9609-11.293-1.7227-13.082-0.47656-1.7852-1.25-6.4141-3.4844-13.078 0.47266-4.5312 2.6914-7.9609 9.7812-8.1484 16.863-0.18359 6.8203 2.5391 12.539 7.6602 16.188 0.1875 3.3203 0.92187 6.2344 3.7773 7.3633 0.80469 2.7422 2.6758 4.9844 5.2461 6.1953 1.6133 0.75 3.1406 1.1289 4.5469 1.1289s2.9336-0.37891 4.5547-1.1328c2.5625-1.2109 4.4336-3.4492 5.2383-6.1914 2.8555-1.1289 3.5898-4.043 3.7773-7.3633 5.1211-3.6484 7.8398-9.3672 7.6562-16.188z"/>
<!-- Created by Kmg Design from Noun Project --></svg>