<svg fill="currentColor" xmlns="http://www.w3.org/2000/svg" version="1.1" viewBox="-5.0 -10.0 110.0 135.0">
 <path d="m2.2734 62.5c-0.62891 0-1.1367-0.50781-1.1367-1.1367v-2.2734c0-0.62891 0.50781-1.1367 1.1367-1.1367h31.816c0.62891 0 1.1367 0.50781 1.1367 1.1367v2.2734c0 0.62891-0.50781 1.1367-1.1367 1.1367zm17.043 7.9531c-0.62891 0-1.1367-0.50781-1.1367-1.1367s0.50781-1.1367 1.1367-1.1367h14.59c0.10547-0.74609 0.17969-1.5 0.17969-2.2734v-1.1367l-31.812 0.003907v1.1367c0 0.77344 0.074218 1.5273 0.17969 2.2734h12.32c0.62891 0 1.1367 0.50781 1.1367 1.1367 0 0.62891-0.50781 1.1367-1.1367 1.1367l-11.832-0.003906c1.9609 6.5625 8.0469 11.363 15.238 11.363 7.1914 0 13.277-4.8008 15.238-11.363zm30.684 10.23c-3.7617 0-6.8164 3.0586-6.8164 6.8164h13.637c0-3.7617-3.0586-6.8164-6.8164-6.8164zm-5.6836-20.457h0.66016l0.38672 19.453c1.3633-0.80859 2.9414-1.2734 4.6367-1.2734 1.6914 0 3.2734 0.46484 4.6367 1.2734l0.38672-19.453h0.66016c0.625 0 1.1367-0.51172 1.1367-1.1367s-0.51172-1.1367-1.1367-1.1367h-11.363c-0.625 0-1.1367 0.51172-1.1367 1.1367s0.51172 1.1367 1.1367 1.1367zm5.6836-32.953c-2.0117 0-3.8867-0.67188-5.3984-1.7852l-0.27344 1.6016c-0.011719 0.066406-0.011719 0.13672-0.011719 0.20312l0.56641 28.387h10.227l0.56641-28.387c0-0.066407 0-0.13672-0.011719-0.20312l-0.27344-1.6016c-1.5117 1.1133-3.3867 1.7852-5.3984 1.7852zm-5.0469-16.637c1.4414-0.97656 3.1836-1.5469 5.0469-1.5469s3.6016 0.56641 5.0469 1.5469l1.6484-3.3086c0.22656-0.44141 0.13672-0.96484-0.20312-1.3164l-3.4102-3.4102c-0.21484-0.20312-0.5-0.32812-0.80859-0.32812h-4.5469c-0.30859 0-0.58984 0.125-0.80859 0.32812l-3.4102 3.4102c-0.33984 0.35156-0.43359 0.875-0.20312 1.3164zm-30.805 24.773c5.0586 0 10.84-1.1367 16.066-4.9414 6.1484-4.4648 10.023-6.375 12.273-7.1914-1-1.4531-1.5781-3.2031-1.5781-5.0898 0-1.0352 0.18359-2.0352 0.5-2.9648-3.2969 0.83984-8.4102 3.1016-14.898 8.9414-6.0117 5.3984-16.102 3.5898-21.59 2.0352-1.1836-0.33984-2.4102-0.10156-3.3867 0.63672-0.97656 0.72656-1.5352 1.8516-1.5352 3.0781 0 1.6836 1.0781 3.1602 2.6719 3.6719 2.3867 0.76172 6.6016 1.8281 11.477 1.8281zm84.316-8.582c-0.97656-0.73828-2.2148-0.97656-3.3867-0.63672-5.4883 1.5586-15.578 3.3633-21.59-2.0352-6.4883-5.8398-11.602-8.1016-14.898-8.9414 0.31641 0.93359 0.5 1.9336 0.5 2.9648 0 1.8984-0.58984 3.6602-1.5781 5.1133 2.2617 0.80859 6.1484 2.7148 12.273 7.1719 5.2383 3.8086 11.012 4.9414 16.066 4.9414 4.875 0 9.0898-1.0664 11.477-1.8281 1.5898-0.51172 2.6719-1.9883 2.6719-3.6719 0-1.2266-0.55859-2.3516-1.5352-3.0781zm-55.281-8.6445c0-3.7617 3.0586-6.8164 6.8164-6.8164 3.7617 0 6.8164 3.0586 6.8164 6.8164 0 3.7617-3.0586 6.8164-6.8164 6.8164-3.7617 0-6.8164-3.0586-6.8164-6.8164zm5.6953 0c0 0.62891 0.51562 1.1367 1.1406 1.1367 0.62891 0 1.1367-0.50781 1.1367-1.1367s-0.50781-1.1367-1.1367-1.1367h-0.011719c-0.62891 0-1.1289 0.50781-1.1289 1.1367zm48.848 39.77h-31.816c-0.62891 0-1.1367 0.50781-1.1367 1.1367v2.2734c0 0.62891 0.50781 1.1367 1.1367 1.1367h31.816c0.62891 0 1.1367-0.50781 1.1367-1.1367v-2.2734c0-0.62891-0.50781-1.1367-1.1367-1.1367zm-31.816 7.957c0 0.77344 0.074219 1.5273 0.17969 2.2734h12.32c0.62891 0 1.1367 0.50781 1.1367 1.1367 0 0.62891-0.50781 1.1367-1.1367 1.1367h-11.828c1.9609 6.5625 8.0469 11.363 15.238 11.363 7.1914 0 13.277-4.8008 15.238-11.363h-14.102c-0.62891 0-1.1367-0.50781-1.1367-1.1367 0-0.62891 0.50781-1.1367 1.1367-1.1367h14.59c0.10547-0.74609 0.17969-1.5 0.17969-2.2734v-1.1367h-31.816zm2.2734 29.543h-1.2383c-0.53516-3.2266-3.3398-5.6836-6.7148-5.6836h-20.453c-3.375 0-6.1836 2.4531-6.7148 5.6836h-1.2383c-0.625 0-1.1367 0.51172-1.1367 1.1367s0.51172 1.1367 1.1367 1.1367h36.363c0.625 0 1.1367-0.51172 1.1367-1.1367s-0.51172-1.1367-1.1367-1.1367zm-58.719-39.77 7.5586-18.113c-0.81641 0.066407-1.6602 0.10156-2.5117 0.10156l-7.5 18.012zm17.434 0h2.4531l-7.8398-18.816c-0.73828 0.17187-1.5 0.31641-2.2734 0.43359l7.6602 18.387zm51.59-18.82-7.8398 18.816h2.4531l7.6602-18.387c-0.77344-0.11328-1.5352-0.26172-2.2734-0.43359zm7 0.80859c-0.85156 0-1.6914-0.035156-2.5117-0.10156l7.5586 18.113h2.4531z"/>
<!-- Created by Kmg Design from Noun Project --></svg>