<svg fill="currentColor" xmlns="http://www.w3.org/2000/svg" version="1.1" viewBox="-5.0 -10.0 110.0 135.0">
 <path d="m25.777 20.836c-4.7305 0.11719-4.7422 7.0664 0 7.1875h21.559c4.7344-0.11719 4.7422-7.0664 0-7.1875h-21.559z"/>
 <path d="m93.691 91.758-3.125-10.938c-0.19141-0.67187-0.80469-1.1328-1.5039-1.1328h-7.8125c1.0078 0.027344 1.8047-1.0312 1.5039-1.9922l-3.125-10.938c-0.19141-0.67187-0.80469-1.1328-1.5039-1.1328h-7.8125c1.0039 0.027344 1.8047-1.0312 1.5039-1.9922l-3.125-10.938c-0.19141-0.67187-0.80469-1.1328-1.5039-1.1328h-12.5c-0.69922 0-1.3125 0.46094-1.5039 1.1328l-3.125 10.938c-0.30078 0.96094 0.49609 2.0195 1.5039 1.9922h-7.8125c-0.69922 0-1.3125 0.46094-1.5039 1.1328l-3.125 10.938c-0.30078 0.96094 0.49609 2.0195 1.5039 1.9922h-7.8125c-0.69922 0-1.3125 0.46094-1.5039 1.1328l-3.125 10.938c-0.30078 0.96094 0.49609 2.0195 1.5039 1.9922h18.75c1.0039 0.027344 1.8047-1.0312 1.5039-1.9922l-3.125-10.938c-0.19141-0.67187-0.80469-1.1328-1.5039-1.1328h9.375c-0.69922 0-1.3125 0.46094-1.5039 1.1328l-3.125 10.938c-0.30078 0.96094 0.49609 2.0195 1.5039 1.9922h18.75c1.0039 0.027344 1.8047-1.0312 1.5039-1.9922l-3.125-10.938c-0.19141-0.67187-0.80469-1.1328-1.5039-1.1328h9.375c-0.69922 0-1.3125 0.46094-1.5039 1.1328l-3.125 10.938c-0.30078 0.96094 0.49609 2.0195 1.5039 1.9922h18.75c1.0039 0.027344 1.8047-1.0312 1.5039-1.9922zm-34.316-12.07c1.0078 0.027344 1.8047-1.0312 1.5039-1.9922l-3.125-10.938c-0.19141-0.67187-0.80469-1.1328-1.5039-1.1328h9.375c-0.69922 0-1.3125 0.46094-1.5039 1.1328l-3.125 10.938c-0.30078 0.96094 0.49609 2.0195 1.5039 1.9922z"/>
 <path d="m24.223 17.91c-0.32422-0.41797 22.645-0.10938 23.113-0.19922 0.55469 0 1.0898 0.085937 1.6055 0.21484 1.2148-2.3281 3.043-4.3906 5.3711-6.5664 0.75-0.66406 0.61719-1.9766-0.25-2.4766-0.40234-0.24609-9.582-5.7227-17.504-0.19922-7.9297-5.5312-17.102-0.046875-17.504 0.19922-0.86719 0.5-1.0039 1.8125-0.25 2.4766 2.3594 2.1992 4.207 4.2695 5.4219 6.5469z"/>
 <path d="m30.453 76.562h5.7422l3.6953-12.93c0.19141-0.67187 0.80469-1.1328 1.5039-1.1328h5.7422l3.6953-12.93c0.19141-0.67187 0.80469-1.1328 1.5039-1.1328h12.297c-2.6445-7.4453-7.9492-13.617-14.121-18.121-0.94922 0.51172-2.0156 0.83203-3.168 0.83203h-21.559c-1.1523 0-2.2188-0.31641-3.168-0.83203-9.5859 6.707-16.453 18.332-16.359 30.043 0 15.594 12.195 19.781 21.684 20.906l1.0195-3.5703c0.19141-0.67187 0.80469-1.1328 1.5039-1.1328zm5.0898-20.762c-2.5859-1.3477-5.9961-2.4375-6.0547-6.3008 0-2.8711 1.9727-5.2656 4.625-5.9648v-1.4375c0-0.86328 0.69922-1.5625 1.5625-1.5625s1.5625 0.69922 1.5625 1.5625v1.4375c2.6523 0.69922 4.625 3.0938 4.625 5.9648 0 0.86328-0.69922 1.5625-1.5625 1.5625s-1.5625-0.69922-1.5625-1.5625c0-1.6875-1.375-3.0625-3.0625-3.0625s-3.0625 1.375-3.0625 3.0625c0 1.2461 0.97656 1.8555 3.2031 2.9531 2.582 1.3477 5.9883 2.4336 6.0508 6.3008 0 2.8711-1.9727 5.2656-4.625 5.9648v1.4375c0 0.86328-0.69922 1.5625-1.5625 1.5625-0.86328 0-1.5625-0.69922-1.5625-1.5625v-1.4375c-2.6523-0.69922-4.625-3.0938-4.625-5.9648 0-0.86328 0.69922-1.5625 1.5625-1.5625 0.86328 0 1.5625 0.69922 1.5625 1.5625 0 1.6875 1.375 3.0625 3.0625 3.0625s3.0625-1.375 3.0625-3.0625c0-1.2539-0.92578-1.832-3.1992-2.9492z"/>
<!-- Attribution retained: Noun Project --></svg>