<svg fill="currentColor" xmlns="http://www.w3.org/2000/svg" version="1.1" viewBox="-5.0 -10.0 110.0 135.0">
 <path d="m84.645 15.355c-9.2891-9.293-21.512-14.344-34.645-14.344s-25.355 5.0508-34.645 14.344c-9.293 9.1914-14.344 21.512-14.344 34.645s5.0508 25.355 14.344 34.645c9.2891 9.293 21.512 14.344 34.645 14.344s25.355-5.0508 34.645-14.344c9.293-9.2891 14.344-21.613 14.344-34.645s-5.0508-25.453-14.344-34.645zm-2.1211 55.453-27.273-26.16 0.003906-32.93c13.133 1.8164 24.242 10 29.797 22.02 5.5547 12.121 4.5469 25.957-2.5273 37.07zm-27.371 17.375v-29.195l20.605 19.699c-5.7578 5.25-12.828 8.4844-20.605 9.4961zm-10.305-29.195v29.191c-7.6758-1.0117-14.746-4.3438-20.504-9.4961zm0-47.27v32.93l-27.273 26.16c-7.1719-11.109-8.082-24.949-2.5234-36.969 5.4531-12.121 16.566-20.305 29.797-22.121z"/>
<!-- Attribution retained: Noun Project --></svg>