<svg fill="currentColor" xmlns="http://www.w3.org/2000/svg" version="1.1" viewBox="-5.0 -10.0 110.0 135.0">
 <path d="m99.488 74.809c-1.2852 0.86328-2.2969 2.4336-3.6836 4.5898-1.9336 3-4.5664 7.1016-9.7734 12.316-2.7266 2.7148-5.7266 4.0898-8.9336 4.0898h-0.32812c-2.4102-0.066407-4.5664-0.89844-6.2852-1.8984 4.5234-1.2148 9.0898-3.5 12.727-7.5352 5.1836-5.7734 7.7266-12.273 8.9414-17.773 3.0469 3.1133 6.75 4.1016 6.9766 4.1602 0.44141 0.11328 0.77344 0.46484 0.83984 0.91016 0.078125 0.44141-0.11328 0.88672-0.48828 1.1367zm-44.18 17.883c-3.2969-0.32812-6.6367-0.21484-9.9531 0.32812-0.14844 0.023438-0.30859 0.035157-0.45312 0.035157-0.73828 0-1.4648-0.28516-1.9883-0.81641-0.56641-0.56641-0.86328-1.3398-0.82812-2.1367 0.44531-9.7617 3.2969-17 7.1523-22.379 16.375 3.8281 16.672 15.789 16.676 16.371 0 0.625 0.51172 1.1328 1.1367 1.1328 0.62891 0 1.1367-0.50781 1.1367-1.1367 0-0.19141-0.039062-4.7812-3.4922-9.5312-2.2852-3.1406-6.4648-6.7852-13.969-8.7812 1.5469-1.8633 3.2148-3.4727 4.9258-4.8594 0 0.17188 0.023437 0.35156 0.035156 0.53516 0.058594 0.625 0.60156 1.1016 1.2266 1.0469 0.625-0.058594 1.0898-0.60156 1.0469-1.2266-0.058594-0.71484-0.078126-1.3984-0.035157-2.0469 0.11328-2.5234 0.93359-4.5586 2.4219-6.0586 2.25-2.2734 5.625-2.9414 7.8281-3.125-0.44141 1-0.85156 2.4219-1.0352 4.4531-0.058594 0.69141-0.089844 1.4648-0.089844 2.3164 0 6.1133-3.9102 9.1836-4.0898 9.3164-0.5 0.375-0.60156 1.0898-0.22656 1.5898 0.22656 0.29688 0.56641 0.45312 0.91016 0.45312 0.23828 0 0.47656-0.078125 0.68359-0.22656 0.20312-0.14844 5-3.8281 5-11.137 0-1.2383 0.078125-2.2617 0.20312-3.1133 1.5352-0.45312 2.8398-0.75 3.8164-0.94141-0.058594 1.25 0.089844 2.7031 0.56641 4.3633 0.13672 0.5 0.58984 0.82812 1.0898 0.82812 0.10156 0 0.20312-0.011718 0.30859-0.046874 0.61328-0.17188 0.95312-0.79688 0.78516-1.3984-0.46484-1.6602-0.56641-3.0234-0.42188-4.1484 0.20312-1.8086 1-2.9883 1.7383-3.7148 0.13672 1.0352 0.375 1.9883 0.64844 2.8281 0.69141 2.1914 1.6133 3.6016 1.6836 3.6914 0.33984 0.52344 1.0469 0.67188 1.5664 0.31641 0.52344-0.33984 0.67188-1.0469 0.31641-1.5664-0.011718-0.023438-1.0469-1.6133-1.6484-3.9883 0.94141-1.0586 1.3281-2.1016 1.1719-3.1719-0.27344-1.8086-2.2383-4.6836-10.023-8.2266-7.75-3.5234-10.75-17.262-10.875-17.84-0.078125-0.375 0.035156-0.77344 0.30859-1.0469 0.85156-0.83984 2.9883-0.95312 8.3281 3.3281 3.9883 3.1836 8.6133 4.6367 10.762 5.1836 1.7148-17.637 14.727-24.352 15.297-24.625 0.42188-0.21484 0.93359-0.14844 1.2734 0.17188 0.35156 0.31641 0.46484 0.80859 0.29688 1.25-2.6484 6.8867-1.1133 12.59 0.375 18.113 1.6016 5.9648 3.2617 12.137-0.42188 19.488-0.43359 0.875-0.89844 1.9102-1.375 3.0898-2.2383 5.4766-3.7031 11.434-4.3633 17.691-0.625 5.8398-2.7148 14.309-9.2031 21.512-7.5352 8.375-19.66 8.5117-26.215 7.8398zm4.1328-11.953c-1.875-0.61328-3.9258 0.11328-4.7617 1.6836-0.75391 1.418-0.21875 2.8633-0.035157 3.2734 0.1875 0.42188 0.60547 0.67188 1.0391 0.67188 0.15625 0 0.3125-0.03125 0.46094-0.097657 0.57422-0.25781 0.83203-0.92969 0.57422-1.5-0.035156-0.074219-0.31641-0.74609-0.035156-1.2734s1.1289-0.89453 2.0547-0.58984c0.59766 0.19141 1.2383-0.13281 1.4336-0.73047 0.19531-0.59766-0.13281-1.2383-0.73047-1.4336zm-42.664-67.113c3.6367-4.0352 8.2031-6.3164 12.727-7.5352-1.7148-1-3.875-1.8281-6.2852-1.8984h-0.32812c-3.2031 0-6.2031 1.375-8.9336 4.0898-5.2031 5.2148-7.8398 9.3164-9.7734 12.316-1.3867 2.1602-2.3984 3.7266-3.6836 4.5898-0.375 0.25-0.56641 0.69141-0.48828 1.1367 0.066406 0.44141 0.39844 0.79688 0.83984 0.91016 0.22656 0.058594 3.9336 1.0469 6.9766 4.1602 1.2148-5.5 3.7617-12 8.9414-17.773zm20.262 20.238c0.5-0.375 0.60156-1.0898 0.22656-1.5898-0.22656-0.29688-0.56641-0.45313-0.91016-0.45313-0.23828 0-0.47656 0.078126-0.68359 0.22656-0.20312 0.14844-5 3.8281-5 11.137 0 1.2383-0.078125 2.2617-0.20312 3.1133-1.5352 0.45312-2.8398 0.75-3.8164 0.94141 0.058594-1.25-0.089844-2.7031-0.56641-4.3633-0.13672-0.5-0.58984-0.82812-1.0898-0.82812-0.10156 0-0.20312 0.011719-0.30859 0.046875-0.61328 0.17188-0.95312 0.79688-0.78516 1.3984 0.46484 1.6602 0.56641 3.0234 0.42188 4.1484-0.20312 1.8086-1 2.9883-1.7383 3.7148-0.13672-1.0352-0.375-1.9883-0.64844-2.8281-0.69141-2.1914-1.6133-3.6016-1.6836-3.6914-0.33984-0.52344-1.0469-0.67188-1.5664-0.31641-0.52344 0.33984-0.67188 1.0469-0.31641 1.5664 0.011718 0.023437 1.0469 1.6133 1.6484 3.9883-0.94141 1.0586-1.3281 2.1016-1.1719 3.1719 0.27344 1.8086 2.2383 4.6836 10.023 8.2266 7.75 3.5234 10.75 17.262 10.875 17.84 0.078125 0.375-0.035156 0.77344-0.30859 1.0469-0.85156 0.83984-2.9883 0.95312-8.3281-3.3281-3.9883-3.1836-8.6133-4.6367-10.762-5.1836-1.7148 17.637-14.727 24.352-15.297 24.625-0.42188 0.21484-0.93359 0.14844-1.2734-0.17188-0.35156-0.31641-0.46484-0.80859-0.29688-1.25 2.6484-6.8867 1.1133-12.59-0.375-18.113-1.6016-5.9648-3.2617-12.137 0.42188-19.488 0.43359-0.875 0.89844-1.9102 1.375-3.0898 2.2383-5.4766 3.7031-11.434 4.3633-17.691 0.625-5.8398 2.7148-14.309 9.2031-21.512 7.5352-8.375 19.66-8.5117 26.215-7.8398 3.2969 0.32812 6.6367 0.21484 9.9531-0.32812 0.14844-0.023437 0.30859-0.035156 0.45312-0.035156 0.73828 0 1.4648 0.28516 1.9883 0.81641 0.56641 0.56641 0.86328 1.3398 0.82812 2.1367-0.44531 9.7617-3.2969 17-7.1523 22.379-16.375-3.8281-16.672-15.789-16.676-16.371 0-0.625-0.51172-1.1328-1.1367-1.1328-0.62891 0-1.1367 0.50781-1.1367 1.1367 0 0.19141 0.039062 4.7812 3.4922 9.5312 2.2852 3.1406 6.4648 6.7852 13.969 8.7812-1.5469 1.8633-3.2148 3.4727-4.9258 4.8594 0-0.17188-0.023438-0.35156-0.035156-0.53516-0.058594-0.625-0.60156-1.1016-1.2266-1.0469-0.625 0.058594-1.0898 0.60156-1.0469 1.2266 0.058594 0.71484 0.078125 1.3984 0.035156 2.0469-0.11328 2.5234-0.93359 4.5586-2.4219 6.0586-2.25 2.2734-5.625 2.9414-7.8281 3.125 0.44141-1 0.85156-2.4219 1.0352-4.4531 0.058594-0.69141 0.089844-1.4648 0.089844-2.3164 0-6.1133 3.9102-9.1836 4.0898-9.3164zm3.5117-14.602c1.875 0.61328 3.9258-0.11328 4.7617-1.6836 0.75391-1.418 0.21875-2.8633 0.035156-3.2734-0.1875-0.42188-0.60547-0.67188-1.0391-0.67188-0.15625 0-0.3125 0.03125-0.46094 0.097657-0.57422 0.25781-0.83203 0.92969-0.57422 1.5 0.035156 0.074219 0.31641 0.74609 0.035156 1.2734s-1.1289 0.89453-2.0547 0.58984c-0.59766-0.19141-1.2383 0.13281-1.4336 0.73047-0.19531 0.59766 0.13281 1.2383 0.73047 1.4336z"/>
<!-- Created by Kmg Design from Noun Project --></svg>