<svg fill="currentColor" xmlns="http://www.w3.org/2000/svg" version="1.1" viewBox="-5.0 -10.0 110.0 135.0">
 <path d="m82.398 20.172-31.43-11.43c-0.62891-0.23047-1.3125-0.23047-1.9414 0l-31.426 11.43c-1.1289 0.41406-1.8867 1.4844-1.8867 2.6875v14.855c0 22.77 12.645 43.23 33.016 53.414 0.39844 0.19922 0.82812 0.30078 1.2695 0.30078s0.87109-0.10156 1.2695-0.30078c20.371-10.188 33.016-30.645 33.016-53.414v-14.855c0-1.1992-0.75781-2.2695-1.8867-2.6875zm-13.812 18.844-19.371 22.215c-0.54297 0.62891-1.3281 0.98438-2.1562 0.98438h-0.015625c-0.84375-0.015625-1.6289-0.37109-2.1562-1.0156l-12.059-14.199c-1.0273-1.2148-0.88672-3.0156 0.32812-4.0273 1.1992-1.0273 3-0.87109 4.0156 0.32812l9.9141 11.672 17.188-19.699c1.043-1.1992 2.8438-1.3125 4.0273-0.28516 1.1992 1.043 1.3125 2.8438 0.28516 4.0273z"/>
<!-- Attribution retained: Noun Project --></svg>