<svg fill="currentColor" xmlns="http://www.w3.org/2000/svg" version="1.1" viewBox="-5.0 -10.0 110.0 135.0">
 <path d="m17.059 44.238c-3.5898-0.125-8.5469-0.42188-12.047-1.125-0.41016-0.078125-0.80859-0.18359-1.1914-0.30859 0.42188 0.55859 0.91016 1.1484 1.4648 1.7266 2.2852 2.3984 6.1484 5.1484 12.25 6.1719-0.27344-2.2734-0.41016-4.4336-0.47656-6.3281zm60.727-16.023c2.5664 1.7148 3.8984 4.9414 4.5664 8.1484h7.3633c-1.4414-4.1133-4.6719-9.4883-11.887-13.488-15.785-8.7617-17.512-14.637-17.66-16.227-0.066407-0.60156-0.61328-1.0469-1.2031-1.0234-0.60156 0.035156-1.0781 0.54688-1.0664 1.1602 0.13672 8.2734 12.977 16.828 19.887 21.434zm12.727 29.727c-0.058594 0.011719-0.11328 0.011719-0.17188 0.011719h-7.3398c0.089844 3.1602-0.078125 12.672-5.2266 16.102-6.8984 4.6016-19.738 13.16-19.875 21.434-0.011719 0.61328 0.46484 1.125 1.0664 1.1602h0.066406c0.57812 0 1.0781-0.44141 1.1367-1.0234 0.14844-1.5898 1.875-7.4648 17.66-16.227 12.387-6.875 13.238-17.828 13.148-21.5-0.14844 0.023437-0.30859 0.046874-0.46484 0.046874zm-69.141-15.898 5.4805 2.1914c0.13281 0.054687 0.27734 0.082031 0.42188 0.082031h4.5469c0.62891 0 1.1367-0.50781 1.1367-1.1367v-7.9531c0-0.62891-0.50781-1.1367-1.1367-1.1367h-8.8516c-1.8359-0.79297-13.453-5.457-22.34-1.0156-0.29688 0.14844-0.51562 0.41797-0.59375 0.74219-0.023437 0.089844-0.53906 2.2305 0.71875 4.2109 0.92188 1.457 2.5039 2.418 4.707 2.8594 5.332 1.0664 14.348 1.1523 15.91 1.1562zm78.121-3.2148s-0.003907 0-0.003907-0.003906c-3.0508-2.0352-4.1328-4.0625-4.1602-4.1094-0.28125-0.55859-0.96094-0.78125-1.5195-0.50391-0.5625 0.28125-0.78906 0.96484-0.50781 1.5234 0.035157 0.074219 0.69531 1.3281 2.3359 2.9023h-60.41v2.2734h47.723c0.10547 1.75 0.070312 3.1875 0.039062 3.9219l0.47656-0.31641c0.18359-0.125 0.39844-0.19141 0.625-0.19141h6.25c0.058594 0 0.11328 0 0.18359 0.011719 0.16016 0 0.30859 0.023437 0.46484 0.046874 0.023438-0.82422 0-2.0273-0.19141-3.4648h4.8398c-1.6406 1.5742-2.2969 2.8281-2.3359 2.9023-0.28125 0.55859-0.054687 1.2344 0.50391 1.5195 0.16406 0.082031 0.33984 0.125 0.51172 0.125 0.41406 0 0.8125-0.22656 1.0156-0.61719 0.011719-0.019531 1.0859-2.0664 4.1641-4.1133 0.32422-0.21484 0.50781-0.58203 0.50781-0.94531 0-0.36328-0.17578-0.72656-0.50781-0.94531zm-14.266 10.035h1.7031c0.69141 0 1.3164-0.31641 1.7266-0.80859 0.23828-0.27344 0.41016-0.61328 0.48828-0.97656 0.035157-0.16016 0.058594-0.31641 0.058594-0.48828h-4.7734l-3.125 2.0781c-0.18359 0.125-0.39844 0.19141-0.625 0.19141h-7.9531v5.6836h7.9531c0.18359 0 0.35156 0.046875 0.51172 0.125l2.0352 1.0117h3.5352c-0.26172-0.51172-0.39844-1.0898-0.39844-1.7031v-2.8398h-1.1367c-0.625 0-1.1367-0.51172-1.1367-1.1367s0.51172-1.1367 1.1367-1.1367zm3.4102 1.9336v3.1836c0 0.94141 0.76172 1.7031 1.7031 1.7031s1.7031-0.76172 1.7031-1.7031v-5.6836c0-0.51172-0.22656-0.97656-0.58984-1.2734-0.16016 1.7148-1.2734 3.1602-2.8164 3.7734zm-64.559-18.98h7.0352l-0.3125-0.62891c-0.078125-0.15625-0.12109-0.33203-0.12109-0.50781v-3.4102c0-0.62891 0.50781-1.1367 1.1367-1.1367h3.4102c0.42969 0 0.82422 0.24219 1.0156 0.62891l0.125 0.24609c0.98828-1.6641 2.6289-3.7461 4.8242-4.1953 0.62891-0.125 1.25-0.10938 1.8633 0.035156-0.16406-0.66016-0.52344-1.5195-1.3242-2.2461-1.2266-1.1133-3.0664-1.5469-5.4531-1.2617-3.5 0.42188-5.4766 1.9531-7.2266 3.3086-1.3516 1.0469-2.5234 1.9531-4.3086 2.3867-0.44141 0.10156-0.78516 0.46484-0.86328 0.91016-0.066406 0.44141 0.125 0.89844 0.5 1.1484 0.27344 0.17188 0.78516 0.48828 1.4219 0.78516-0.60156 0.26172-1.125 0.38672-1.4102 0.29688-0.39844-0.11328-0.82812-0.011719-1.125 0.27344-0.29688 0.29688-0.41016 0.71484-0.30859 1.1133 0.16016 0.625 0.53516 1.4648 1.125 2.2617zm17.566-6.7734c-2.0078 0.41016-3.7695 3.7773-4.2266 4.9258-0.16797 0.41797-0.5625 0.69531-1.0078 0.71484-0.45703 0.027344-0.86328-0.22656-1.0625-0.62891l-0.82422-1.6445h-1.5703v2.0039l1.1562 2.3086c0.67969 0.625 1.1172 1.5117 1.1172 2.5039v1.1367h7.9531c1.25 0 2.2734-1.0234 2.2734-2.2734v-0.67188l0.80859-0.79688c0.375-0.38672 0.44141-0.98828 0.13672-1.4336l-2.1602-3.25-0.57422-2.293c-0.70312-0.53516-1.3672-0.73828-2.0195-0.60938zm10.633 44.387 0.10156 1.0234h-2.1328l-0.27344-1.3594c-0.050781-0.25391-1.3594-6.2656-11.926-12.133-2.8867-1.6016-5.8398-4.4141-7.8086-6.4883-0.43359-0.45703-1.1523-0.47656-1.6055-0.042968-0.45703 0.43359-0.47266 1.1523-0.042968 1.6055 2.0781 2.1914 5.2188 5.1641 8.3555 6.9062 9.5352 5.2969 10.793 10.551 10.801 10.594l0.18359 0.91406h-16.113c-0.066406 0-0.13672-0.011719-0.20312-0.023438-10.137-1.8398-12-18.012-12.285-26.137 0.66016 0.011719 1.1914 0.023438 1.5898 0.023438l5.0898 2.0352c0.41016 0.16016 0.82813 0.23828 1.2617 0.23828h4.3867c2.5586 2.0898 5.8477 4.4609 9.8359 6.6758 9.5625 5.3125 10.773 16.059 10.785 16.164zm-24.812-13.953c-0.46094-0.42578-1.1797-0.40234-1.6055 0.058594-0.42578 0.46094-0.40234 1.1797 0.058594 1.6055 1.4922 1.3867 4.0352 3.4219 7.668 5.2383 0.35156 0.17578 0.69531 0.375 1.0312 0.58984 0.19141 0.12109 0.40234 0.17969 0.61328 0.17969 0.375 0 0.74219-0.18359 0.95703-0.52344 0.33984-0.52734 0.18359-1.2305-0.34375-1.5703-0.41406-0.26563-0.83203-0.50391-1.2422-0.71094-3.3906-1.6953-5.75-3.582-7.1367-4.8711zm6.6836-9.8164c1.0898 0.85156 2.2969 1.7383 3.6133 2.6367 0.58984-2.1484 2-4.3086 2.2031-4.6016l0.33984-0.51172h-5.0781c0 0.97656-0.42187 1.8516-1.0781 2.4766zm7.707-0.71094c-0.53516 0.80469-1.8516 3.0938-2.043 4.6797 0.89062 0.55859 1.8125 1.1094 2.7852 1.6523 2.25 1.25 4.0703 2.7539 5.5586 4.3477-0.03125-0.875-0.042969-1.7891-0.023438-2.7148 0.10156-4.3945 0.89844-7.6445 2.375-9.7305h-7.4766l-1.1797 1.7656zm27.555 13.004c0.58984-0.046875 1.0469-0.54688 1.0469-1.1367v-10.227c0-0.56641-0.43359-1.0586-1-1.125l-16.066-2.0117c-2.9102 2.1484-3.2266 8.5352-2.8867 13.648 5.4766 1.8086 17.387 0.96484 18.91 0.85156z"/>
<!-- Created by Kmg Design from Noun Project --></svg>