<svg fill="currentColor" xmlns="http://www.w3.org/2000/svg" version="1.1" viewBox="-5.0 -10.0 110.0 135.0">
 <path d="m37.148 62.285-4.3398 7.5898c0 0.011719-0.011719 0.023438-0.011719 0.035156-0.125 0.19141-0.29688 0.33984-0.47656 0.43359l-4.5352 2.2617c-0.17188 0.089843-0.33984 0.125-0.51172 0.125-0.42188 0-0.81641-0.22656-1.0117-0.625-0.28516-0.56641-0.058594-1.25 0.5-1.5234l4.0586-2.0352 2.1602-10.816c0.066406-0.36328 0.31641-0.67188 0.67188-0.81641l2.6016-1.1133c0.13672 0.17188 0.28516 0.33984 0.44141 0.5l1.3281 1.3281c0.56641 0.55859 1.2266 0.97656 1.9531 1.2617 0.26172 0.69141 0.66016 1.3281 1.2031 1.8867l-4.0352 1.5117zm10.785 2.2734c-0.32812-0.22656-0.61328-0.48828-0.875-0.77344-0.16016 0.011719-0.30859 0.046875-0.46484 0.046875-1.5234 0-2.9414-0.58984-4.0234-1.6602l-0.78516-0.78516-2.7031 2.0234c-0.29688 0.22656-0.46484 0.57812-0.45312 0.95312l0.45312 11.023-3.4531 2.9336c-0.47656 0.39844-0.53516 1.1133-0.125 1.5898 0.21484 0.27344 0.54688 0.41016 0.86328 0.41016 0.26172 0 0.52344-0.089843 0.73828-0.27344l3.8633-3.2734c0.16016-0.13672 0.29688-0.31641 0.36328-0.53516 0-0.011719 0-0.023437 0.011719-0.035156l2.4219-8.3984 4.4648-3.0469-0.29688-0.20312zm6.8047 3.6797c-1.2148-0.11328-2.3867-0.51172-3.3867-1.2383l-2.3281-1.6602-3.6133 4.8086c-0.22656 0.29687-0.28516 0.69141-0.17188 1.0469l3.5117 10.453-2.5117 3.7734c-0.33984 0.52344-0.20312 1.2266 0.31641 1.5781 0.19141 0.125 0.41016 0.19141 0.63672 0.19141 0.36328 0 0.72656-0.18359 0.94141-0.51172l2.8086-4.2266c0.11328-0.17188 0.19141-0.38672 0.19141-0.625v-0.011719l-0.011718-8.75 3.8281-4.6484-0.21484-0.18359zm1.0352-33.453-1.1133 2.6133c0.17188 0.125 0.33984 0.27344 0.5 0.43359l1.3281 1.3281c0.56641 0.57812 0.98828 1.2383 1.2617 1.9531 0.70312 0.27344 1.3398 0.67188 1.8867 1.2031l1.5117-4.0352 7.5898-4.3398c0.011719 0 0.023438-0.011718 0.035157-0.011718 0.19141-0.125 0.33984-0.29688 0.43359-0.47656l2.2617-4.5352c0.28516-0.56641 0.058594-1.25-0.5-1.5234-0.56641-0.28516-1.25-0.058593-1.5234 0.5l-2.0352 4.0586-10.816 2.1602c-0.36328 0.066407-0.67188 0.31641-0.81641 0.67188zm6.5 5.4297-2.0234 2.7031 0.78516 0.78516c1.2266 1.2266 1.7383 2.875 1.6133 4.4883 0.28516 0.26172 0.54687 0.54688 0.77344 0.875l0.20312 0.29688 3.0469-4.4648 8.3984-2.4219c0.011719-0.011718 0.023438-0.011718 0.035157-0.011718 0.21484-0.066406 0.39844-0.20312 0.53516-0.36328l3.2734-3.8633c0.41016-0.48828 0.35156-1.2031-0.13672-1.6016-0.47656-0.41016-1.1914-0.35156-1.5898 0.125l-2.9336 3.4531-11.023-0.45312c-0.36328-0.023438-0.72656 0.16016-0.95312 0.45312zm6.7383 6.332-4.8086 3.6133 1.6602 2.3281c0.75 1.0352 1.1602 2.2148 1.25 3.4102l0.17188 0.20312 4.6484-3.8398 8.75 0.011719h0.011718c0.23828 0 0.45313-0.078126 0.625-0.19141l4.2266-2.8086c0.52344-0.35156 0.66016-1.0586 0.31641-1.5781-0.35156-0.52344-1.0586-0.67187-1.5781-0.31641l-3.7734 2.5117-10.453-3.5117c-0.36328-0.125-0.75-0.058594-1.0469 0.17188zm-4.3867-26.738c0.35156-2.4219-0.32812-4.3984-1.3281-5.8633-0.011719 0.078126-0.058594 0.14844-0.089844 0.21484-0.93359 1.6836-1.9531 3.0586-3.0898 4.125 1.6484 0.14844 3.2148 0.53516 4.5117 1.5234zm-7.8086 0.64453c-4.25 0-5.5352 6.9727-5.668 7.7695-0.039063 0.23828-0.003907 0.48047 0.10547 0.69531 0.058594 0.11719 1.4844 2.9023 4.4258 2.9023 2.3281 0 7.0781-3.0547 8.6133-5.543 0.83203-1.3438 0.65234-2.3281 0.35547-2.918-1.4492-2.9023-4.2695-2.9023-7.8359-2.9023zm-10.008-0.44141c-1.875-0.77344-3.7031-1.8086-5.5-2.8086-1.3164 0.45312-2.8633 0.57812-4.5117-0.066406-0.5-0.19141-1.0781-0.011719-1.375 0.43359-0.29688 0.45313-0.22656 1.0469 0.14844 1.4336 0.21484 0.20312 4.9336 4.8633 10.387 4.8633 0.30859 0 0.60156-0.011719 0.91016-0.046876 2-0.20312 3.8086-1.0469 5.3867-2.5117-1.8633-0.066406-3.6836-0.56641-5.4414-1.2969zm-21.031-0.75391c0.11719 0.039063 0.23828 0.058594 0.35938 0.058594 0.35156 0 0.6875-0.16406 0.91016-0.45312 0.0625-0.082031 6.332-8.2969 12.219-5.3477 0.99609 0.49609 2.0039 1.0625 3.0742 1.6641 4.1523 2.3281 8.4414 4.7383 12.625 3.5508 2.4766-0.70312 4.5234-2.5586 6.2539-5.6797 0.13672-0.24219 0.17578-0.52734 0.11719-0.79688-0.027344-0.10938-2.625-11.117-15.883-11.117-13.43 0-20.453 11.098-20.453 17.047 0 0.48828 0.3125 0.92188 0.77734 1.0781zm11.098 12.754c-0.52344 0.33984-0.67188 1.0469-0.31641 1.5664l0.78516 1.1719c0.5-0.55859 1.0781-1.0469 1.7383-1.4531l-0.63672-0.96484c-0.33984-0.52344-1.0469-0.67188-1.5664-0.31641zm12.363-5.6953c-2.3867 0.25-5.6719 0.83984-7.8164 2.2852-0.77344 0.51172-1.3164 1.1133-1.6914 1.7734 0.22656 0.19141 0.44141 0.43359 0.61328 0.69141l0.81641 1.2148c0.375-0.13672 0.77344-0.26172 1.1914-0.36328 0.76172-0.19141 1.5469-0.28516 2.3164-0.28516 2.3086 0 4.2852 0.85156 5.8086 1.8633 0.39844-0.25 0.81641-0.48828 1.25-0.69141-1.2383-0.875-2.0898-2.0352-2.5117-2.8867-0.31641-0.63672-0.42188-1.3633-0.30859-2.0781 0.058594-0.30859 0.16016-0.83984 0.32812-1.5234zm-18.09 15.98-1.2148-0.81641c-0.26172-0.18359-0.5-0.38672-0.69141-0.61328-0.66016 0.375-1.2617 0.92187-1.7734 1.6914-1.4414 2.1484-2.0352 5.4336-2.2852 7.8164 0.68359-0.17188 1.2266-0.27344 1.5352-0.32812 0.19141-0.035156 0.375-0.046875 0.55859-0.046875 0.52344 0 1.0586 0.125 1.5234 0.36328 0.83984 0.41016 1.9883 1.25 2.875 2.4883 0.20312-0.43359 0.44141-0.83984 0.68359-1.2266-1.4102-2.1602-2.3516-4.9883-1.5664-8.1367 0.10156-0.42188 0.22656-0.81641 0.36328-1.1914zm-18.125 22.043c-0.066407 0.035156-0.13672 0.066406-0.20313 0.089844 1.1914 0.81641 2.7383 1.4219 4.5898 1.4219 0.41016 0 0.82812-0.035156 1.2617-0.089843-0.98828-1.2969-1.375-2.8633-1.5234-4.5117-1.0664 1.1367-2.4414 2.1602-4.125 3.0898zm7.1484-10.953c1.4648-1.5781 2.3086-3.3867 2.5117-5.3867 0.57812-5.8164-4.6016-11.066-4.8164-11.297-0.38672-0.375-0.97656-0.43359-1.4336-0.14844-0.45312 0.29687-0.625 0.875-0.43359 1.375 0.64844 1.6484 0.52344 3.1914 0.066406 4.5117 1.9102 3.3984 3.9531 7.1016 4.1016 10.941zm44.191 14.535 2.4219-2.4219c1.6719-1.6719 1.7969-4.3086 0.27344-6.125l-0.38672-0.45312c-0.32812 0.85156-0.83984 1.6602-1.5352 2.3516l-5.0117 5c-0.67188 0.68359-1.4648 1.2031-2.3516 1.5352l0.46484 0.38672c0.85156 0.71484 1.8867 1.0664 2.9219 1.0664 1.1602 0 2.3164-0.45312 3.2031-1.3398zm-27.543-14.742c0.20313 0.15234 0.44141 0.22656 0.67969 0.22656 0.29297 0 0.58203-0.11328 0.80469-0.33203l13.637-13.637c0.39844-0.39844 0.44531-1.0312 0.10547-1.4844-0.15625-0.21094-3.9258-5.1289-9.1367-3.8281-1.9219 0.48047-3.375 1.3828-4.332 2.6836-0.81641 1.1133-1.793 2.0898-2.9023 2.9023-1.3008 0.95312-2.2031 2.4102-2.6836 4.332-1.3047 5.2188 3.6172 8.9805 3.8281 9.1367zm5.2266 3.832c0.875 0 1.75-0.32812 2.4102-1l10.422-10.422c1.3281-1.3281 1.3281-3.4883 0-4.8164l-0.67188-0.67188c-0.16016 0.33984-0.375 0.66016-0.66016 0.94141l-13.637 13.637c-0.27344 0.28516-0.58984 0.5-0.94141 0.66016l0.67188 0.67188c0.66016 0.67188 1.5352 1 2.4102 1zm4.543 4.5469c0.875 0 1.75-0.32812 2.4102-1l10.422-10.422c1.3281-1.3281 1.3281-3.4883 0-4.8164l-1.3398-1.3398c-0.16016 1.1836-0.69141 2.3164-1.6016 3.2148l-10.422 10.422c-0.86328 0.88672-1.9766 1.4414-3.2031 1.6133l1.3281 1.3281c0.66016 0.67188 1.5352 1 2.4102 1zm16.945-1.8984c1.5781-1.5664 1.7852-4.0352 0.48828-5.8516l-2.2031-3.0781c-0.21484 0.36328-0.47656 0.70312-0.79687 1.0117l-10.422 10.422c-0.30859 0.30859-0.63672 0.57813-1 0.80859l3.0664 2.1914c0.79688 0.56641 1.7266 0.83984 2.6484 0.83984 1.1719 0 2.3281-0.44141 3.2031-1.3281zm14.875 28.461c0.007813-2.9648-0.96875-5.0859-2.9062-6.3125-4.5977-2.9102-13.117 0.70312-14.766 1.4492-0.19531 0.078126-0.32422 0.15234-0.36328 0.17578-0.51953 0.3125-0.70312 0.97656-0.41406 1.5117 0.28906 0.53516 0.94141 0.75 1.4922 0.48828 0.054687-0.027344 0.10938-0.050782 0.16797-0.078125 0.17578-0.0625 0.57031-0.16406 1.0664 0.039062 0.62109 0.25391 1.8242 1.1758 2.875 4.4883 1.3203 4.168 3.918 5.0273 5.832 5.0273 0.37109 0 0.71484-0.03125 1.0195-0.078125 3.4102-0.51953 5.9922-3.4023 6-6.707zm-47.727-31.305c0-2.9414-2.7812-4.3672-2.9023-4.4258-0.21484-0.10938-0.45703-0.14453-0.69531-0.10547-0.79688 0.13281-7.7695 1.418-7.7695 5.668 0 3.5664 0 6.3828 2.9023 7.8359 0.27344 0.13672 0.625 0.24609 1.0586 0.24609 0.51172 0 1.1328-0.15234 1.8594-0.60156 2.4883-1.5352 5.543-6.2852 5.543-8.6133zm-13.09-0.71484c1.1875-4.1797-1.2227-8.4727-3.5508-12.625-0.59766-1.0703-1.168-2.0781-1.6641-3.0742-2.9414-5.8828 5.2656-12.156 5.3477-12.219 0.39063-0.29297 0.55078-0.80469 0.39453-1.2695-0.15625-0.46484-0.58984-0.77734-1.0781-0.77734-5.9492 0-17.047 7.0234-17.047 20.453 0 13.258 11.008 15.855 11.117 15.883 0.082031 0.019532 0.16406 0.027344 0.24609 0.027344 0.19141 0 0.38281-0.050781 0.55078-0.14453 3.1211-1.7305 4.9766-3.7773 5.6797-6.2539zm14.848-18.41c-0.52344-0.35156-1.2266-0.20312-1.5664 0.31641-0.35156 0.52344-0.20312 1.2266 0.31641 1.5664l0.96484 0.63672c0.41016-0.66016 0.89844-1.2383 1.4531-1.7383l-1.1719-0.78516zm55.387 40.535c0.76562 0.49609 1.418 1.1133 1.9453 1.8516l2.5469 0.63672c0.015626 0.003906 2.0977 0.48047 3.3672-0.78516 1.1289-1.125 1.4297-3.3828 0.90625-6.5586-0.58984-0.77344-1.2383-1.5-1.9766-2.1484-0.89844-0.78906-1.9141-1.4727-3.0039-2.0547 0.22656 3.0469-0.51953 6.6719-3.7812 9.0547zm1.418 9.7539c-0.57031 0.57812-1.1641 1.0586-1.7695 1.4258 0.023438 0.96484 0.24609 2.8203 1.5547 4.1992 1.1602 1.2227 2.9531 1.8516 5.3438 1.875 0.55469-0.41797 1.0938-0.85938 1.5781-1.3438 0.78125-0.76953 1.4375-1.6133 2-2.5078-0.44922 0.074219-0.89062 0.125-1.3203 0.125-3.0977 0-5.6758-1.8477-7.3867-3.7734zm-7.6172-20.43c0.074219 0.11328 1.8438 2.8203 0.94922 6.0312-0.33203 1.1953-0.98047 2.2812-1.9336 3.2578 1.6914-0.18359 3.2383-0.070313 4.6133 0.28125 4.4258-2.2031 4.3828-6.543 3.9258-9.0078-2.4492-0.87109-5.1641-1.2812-7.9531-1.1641zm17.34 10.332c-0.23828 1.5508-0.79688 2.793-1.6953 3.6797-1.2656 1.2461-2.8594 1.5156-4.0078 1.5156-0.83594 0-1.4375-0.14453-1.4922-0.16016l-0.83984-0.21094c0.20703 1.1328 0.089844 2.2734-0.34766 3.3125 1.4922 1.8516 4.6172 4.7031 8.6914 2.8203 0.47266-1.4023 0.72656-2.8906 0.72656-4.4492 0-2.3672-0.36328-4.543-1.0312-6.5156zm-13.703 12.488c-0.37891 0.10938-0.74609 0.1875-1.0977 0.24219l-0.64062 1.9102s-0.12891 0.41797-0.10156 0.92969c0.035157 0.62891-0.44922 1.1602-1.0742 1.1953h-0.0625c-0.60156 0-1.1016-0.46875-1.1328-1.0781-0.050781-0.94141 0.19141-1.6875 0.21875-1.7695l0.36328-1.0898c-0.48828-0.039063-0.95703-0.10547-1.3945-0.21484-0.68359 2.3516-2.3281 4.3633-4.5234 5.5469 2.2031 1.7383 5.1367 2.7969 8.2617 2.8164h0.125c2.4062 0 4.8047-0.54688 6.9805-1.5156-1.5508-0.41406-2.832-1.1445-3.8242-2.1992-1.4453-1.5391-1.9414-3.4102-2.0977-4.7773zm-12.574-21.637c0.10547-0.76172-0.039062-1.5352-0.37891-2.3125-1.0508-0.41797-1.8711-0.93359-2.4805-1.4219-0.32812 0.76172-0.81641 1.4766-1.4414 2.1016l-2.4219 2.4219c-0.66016 0.67187-1.4336 1.1836-2.2734 1.5117 1.0195 1.043 2.3594 2.2539 3.9375 3.3477l2.1914-1.4609c0.023437-0.015625 2.5273-1.7305 2.8672-4.1836zm7.6875 4.2617c0.625-2.1992-0.63281-4.168-0.64844-4.1875l-1.0977-1.6484c-1.4062 0.13281-2.6523 0.097656-3.7383-0.066406 0.11328 0.65234 0.13281 1.3086 0.039063 1.9688-0.49219 3.4688-3.7148 5.6562-3.8516 5.7461l-1.3125 0.875c1.832 0.96094 3.8867 1.6367 6.0781 1.7148 2.5117-1.1953 4.0352-2.6758 4.5273-4.4062z"/>
<!-- Created by Kmg Design from Noun Project --></svg>