<svg fill="currentColor" xmlns="http://www.w3.org/2000/svg" version="1.1" viewBox="-5.0 -10.0 110.0 135.0">
 <path d="m27.816 49.172c0 0.55859 0.035156 1.1133 0.078125 1.6719-0.41016 0.011719-0.81641 0.035156-1.2266 0.066406-2.5664 0.21484-4.9883 0.88672-6.8281 1.8633-0.11328 0.058593-0.22656 0.125-0.32812 0.19141 1.0781-1.7734 2.7617-3.1602 4.7852-3.8633 0.97656 0.058594 1.9883 0.078126 3.0234 0.078126 0.16016 0 0.32813 0 0.5-0.011719zm52.344 3.6016c0.11328 0.058593 0.22656 0.125 0.32812 0.19141-1.0781-1.7734-2.7617-3.1602-4.7852-3.8633-0.97656 0.058594-1.9883 0.078126-3.0234 0.078126-0.16016 0-0.32813 0-0.5-0.011719 0 0.55859-0.035157 1.1133-0.078126 1.6719 0.41016 0.011718 0.81641 0.035156 1.2266 0.066406 2.5664 0.21484 4.9883 0.88672 6.8281 1.8633zm-52.023 0.33984c-0.41016 0-0.83984 0.023438-1.2617 0.058594-2.2734 0.19141-4.3867 0.77344-5.9531 1.6133-2.5234 1.3398-2.7852 2.8984-2.7148 3.7031 0.22656 2.6016 3.8516 3.8086 7.7734 3.8086 0.55859 0 1.125-0.023437 1.6836-0.066406 0.92188-0.078125 1.8164-0.21484 2.6602-0.42188-0.61328-1.8398-1.1133-3.625-1.5117-5.2266-0.28516-1.1484-0.51172-2.3086-0.67188-3.4648zm50.941 1.6719c-1.5664-0.83984-3.6836-1.4219-5.9531-1.6133-0.42188-0.035156-0.85156-0.058594-1.2617-0.058594-0.16016 1.1602-0.38672 2.3164-0.67188 3.4648-0.39844 1.6016-0.89844 3.3867-1.5117 5.2266 0.83984 0.20312 1.7383 0.33984 2.6602 0.42187 0.55859 0.046876 1.125 0.066407 1.6836 0.066407 3.9219 0 7.5469-1.2031 7.7734-3.8086 0.066406-0.80859-0.19141-2.3633-2.7148-3.7031zm-51.227-7.8867c0.066407-1.4102 0.23828-2.8281 0.48828-4.25l1.4531-7.9766c-5.0664 0.20312-12.637-0.38672-17.078-5.0469-3.8398-4.0234-4.6914-10.453-2.5234-19.125 0.125-0.47656-0.078125-0.97656-0.5-1.2383-0.43359-0.26172-0.96484-0.21484-1.3398 0.10156-0.33984 0.29688-8.3516 7.2852-8.3516 17.91 0 5.2383 1.9414 9.7852 5.6133 13.137 4.7383 4.3281 12.023 6.5 21.703 6.5 0.17188 0 0.35156 0 0.53516-0.011718zm63.797-37.535c-0.375-0.31641-0.92188-0.36328-1.3398-0.10156-0.42188 0.26172-0.625 0.76172-0.5 1.2383 2.1602 8.6602 1.3164 15.09-2.5234 19.125-4.4336 4.6484-12.023 5.25-17.09 5.0352l1.4648 7.9883c0.25 1.4219 0.42188 2.8398 0.48828 4.25 0.18359 0.011718 0.36328 0.011718 0.53516 0.011718 9.6836 0 16.965-2.1719 21.703-6.5 3.6719-3.3516 5.6133-7.8984 5.6133-13.137 0-10.625-8.0117-17.613-8.3516-17.91zm-40.863 73.715-0.78516-0.79688-0.78516 0.79688c-1.3867 1.3867-3.2383 2.1484-5.1914 2.1484-1.125 0-2.2031-0.26172-3.1719-0.72656l0.43359 1.9531c0.57812 2.625 2.8633 4.4531 5.5469 4.4531h6.3398c2.6836 0 4.9648-1.8281 5.5469-4.4531l0.43359-1.9531c-0.96484 0.46484-2.0469 0.72656-3.1719 0.72656-1.9531 0-3.8086-0.76172-5.1914-2.1484zm-9.9688-12.066c-0.93359 0.44141-1.7383 1.0586-2.3984 1.8086-3.6836-4.25-6.0469-11.375-7.4102-16.797-1.0664-4.2617-1.2148-8.625-0.43359-12.965l0.76172-4.1836c0.78516 2.2734 2.2266 4.3164 3.8398 6.5586 3.5898 5.0234 8.0898 11.285 8 24.273-0.61328 0.39844-1.3867 0.81641-2.3633 1.3086zm-2.2148-12.195-1.1367-4.5469c-0.125-0.51172-0.57812-0.86328-1.1016-0.86328-0.44141 0-1.1367-0.47656-1.4648-0.80859-0.45313-0.44141-1.1719-0.44141-1.6133 0s-0.44141 1.1719 0 1.6133c0.125 0.11328 1.0117 0.97656 2.1602 1.3164l0.95313 3.8281c0.125 0.52344 0.58984 0.86328 1.1016 0.86328 0.089844 0 0.18359-0.011719 0.27344-0.035156 0.61328-0.14844 0.97656-0.77344 0.82812-1.375zm30.387-2.793c-1.3633 5.4219-3.7266 12.547-7.4102 16.797-0.66016-0.75-1.4648-1.3633-2.3984-1.8086-0.97656-0.48828-1.75-0.91016-2.3633-1.3086-0.089844-12.988 4.4102-19.25 8-24.273 1.6133-2.2266 3.0469-4.2734 3.8398-6.5469l0.76172 4.1719c0.78516 4.3398 0.63672 8.7031-0.43359 12.965zm-2.2734-3.4102c-0.44141-0.44141-1.1602-0.45312-1.6016-0.011719-0.33984 0.32813-1.0352 0.80859-1.4766 0.80859-0.52344 0-0.97656 0.35156-1.1016 0.86328l-1.1367 4.5469c-0.14844 0.60156 0.21484 1.2266 0.82812 1.375 0.089844 0.023438 0.18359 0.035157 0.27344 0.035157 0.51172 0 0.97656-0.33984 1.1016-0.86328l0.95313-3.8281c1.1484-0.33984 2.0352-1.2031 2.1602-1.3164 0.44141-0.44141 0.44141-1.1602 0-1.6016zm-14.32 28.855c0.082031 0.082031 0.17969 0.14062 0.26562 0.21875 2.8242-0.85547 3.1602-3.2578 3.125-4.5234-0.95312 0.28516-2.6875 1.6875-4.2422 3.4531l0.85547 0.85547zm-5.0547 0.21875c0.085937-0.074219 0.18359-0.13672 0.26562-0.21875l0.85547-0.85547c-1.5586-1.7656-3.293-3.168-4.2461-3.4531-0.042969 1.2852 0.28906 3.6719 3.125 4.5273zm2.6602-39.641c-2.5078 0-4.5469 1.5273-4.5469 3.4102 0 1.8789 2.0391 3.4102 4.5469 3.4102s4.5469-1.5273 4.5469-3.4102c0-1.8789-2.0391-3.4102-4.5469-3.4102zm10.25 32.77c0.68359 1.0234 0.96484 2.2617 0.79688 3.4766l-0.046875 0.30859c-0.35156 2.4766-2.5117 4.3516-5.0234 4.3516-0.20312 0-0.41016-0.035156-0.625-0.058594 2.6484-1.8398 2.9336-5.0352 2.5898-6.8867-0.058594-0.91016-0.89844-3.2852-7.9414-3.2852-7.0469 0-7.8867 2.375-7.9414 3.2852-0.33984 1.8516-0.058594 5.0469 2.5898 6.8867-0.21484 0.023438-0.42188 0.058594-0.625 0.058594-2.5117 0-4.6719-1.875-5.0234-4.3516l-0.046875-0.30859c-0.17188-1.2148 0.11328-2.4531 0.79688-3.4766 0.48828-0.75 1.2031-1.3516 2.0469-1.7617 1.4766-0.71484 2.6914-1.4336 3.625-2.1367v-0.011719c1.0117-0.77344 1.7031-1.5469 2.0664-2.3086 0.26172-0.56641 0.023438-1.2383-0.54688-1.5117-0.56641-0.27344-1.25-0.023438-1.5117 0.54687 0 0.011719-0.011719 0.023438-0.011719 0.035157-0.375-12.34-4.7969-18.535-8.3984-23.559-2.2734-3.1719-4.0664-5.6719-4.0664-8.8867 0-4.6367 12.625-5.6836 17.047-5.6836s17.047 1.0469 17.047 5.6836c0 3.2148-1.7969 5.7148-4.0664 8.8867-3.5898 5.0117-8.0352 11.203-8.3984 23.559 0-0.011719-0.011719-0.023438-0.011719-0.035157-0.26172-0.56641-0.94141-0.81641-1.5117-0.54687-0.56641 0.27344-0.80859 0.94141-0.54688 1.5117 0.36328 0.76172 1.0586 1.5352 2.0664 2.3086v0.011719c0.93359 0.70312 2.1484 1.4219 3.625 2.1367 0.83984 0.41016 1.5586 1.0117 2.0469 1.7617zm-10.25-23.68c3.7617 0 6.8164-2.5469 6.8164-5.6836 0-1.6484-0.85156-3.125-2.2031-4.1719 2.5781-0.85156 4.3867-2.2031 5.2266-2.9336 0.46484-0.41016 0.52344-1.125 0.10156-1.6016-0.41016-0.46484-1.125-0.52344-1.6016-0.10156-1.0781 0.93359-4.0469 3.125-8.3398 3.125-4.2969 0-7.2617-2.1914-8.3398-3.125-0.47656-0.42188-1.1914-0.36328-1.6016 0.10156-0.42188 0.47656-0.36328 1.1914 0.10156 1.6016 0.83984 0.72656 2.6484 2.0781 5.2266 2.9336-1.3516 1.0469-2.2031 2.5234-2.2031 4.1719 0 3.1367 3.0586 5.6836 6.8164 5.6836zm-4.1367 24.301c1.5742 0.81641 3.1133 2.3359 4.1367 3.4844 1.0234-1.1484 2.5625-2.6641 4.1367-3.4844-0.85156-0.24219-2.1484-0.44141-4.1367-0.44141s-3.2852 0.19922-4.1367 0.4375z"/>
<!-- Created by Kmg Design from Noun Project --></svg>