<svg fill="currentColor" xmlns="http://www.w3.org/2000/svg" version="1.1" viewBox="-5.0 -10.0 110.0 135.0">
 <path d="m79.91 78.16c1.3398 1.6367 2 4.8164 0.56641 7.4648-1.6016 3-5.3633 4.4531-10.672 4.1484-4.0117-7.1914-4.8281-16.828-5-20.285 1.7148-1.4531 3.1914-3.1836 4.3867-5.0898 3.1602-0.11328 6.2852-2.3984 8.1484-5.8867 0 2.4648-0.42188 7.3516-3.3633 11.184-3.3398 4.375-4.5898 8.75-3.3398 11.727 0.67188 1.5898 2.0234 2.625 3.7266 2.8281 0.29688 0.035156 0.57812 0.058594 0.83984 0.058594 1.1836 0 2.0898-0.35156 2.6914-1.0586 1.0781-1.2266 0.66016-2.9336 0.61328-3.1133-0.16016-0.60156-0.77344-0.95312-1.375-0.80859-0.60156 0.16016-0.97656 0.77344-0.81641 1.375 0.058594 0.23828 0.089844 0.79688-0.13672 1.0586-0.21484 0.25-0.77344 0.32812-1.5469 0.23828-0.91016-0.11328-1.5469-0.60156-1.9102-1.4531-0.30859-0.75-0.41016-1.8086-0.13672-3.125 0.73828-0.41016 4.75-2.3984 7.3164 0.73828zm15.953-5.1133c-0.86328-2.2266-2.2852-3.7383-4.2383-4.5117-1.4336-0.55859-2.9414-0.61328-4.2031-0.47656-2.0898 3.9102-1.5352 6.1914-0.61328 6.7969 0.61328 0.39844 1.4219 0.11328 2.0117-0.68359 0.375-0.5 1.0898-0.61328 1.5898-0.23828 0.51172 0.375 0.61328 1.0898 0.23828 1.5898-0.86328 1.1602-2.0664 1.7852-3.25 1.7852-0.63672 0-1.2617-0.18359-1.8281-0.54688-1.8984-1.2383-3.0352-4.625 0.035157-10.125 3.1719-5.6836-0.078125-10.559-1.6133-12.375-0.066407 0.10156-0.13672 0.19141-0.20313 0.28516-1.1602 1.5469-2.5898 2.5781-4.1836 3.0469 0.10156 2.3086-0.023438 8.5469-3.8164 13.488-0.95312 1.25-1.6602 2.4102-2.1836 3.4766 2.4414-0.71484 5.7148-0.70312 8.0586 2.1602 1.8281 2.2383 2.7031 6.2969 0.91016 9.8164 7.5586-0.19141 10.922-3.4414 12.273-5.4102 1.6602-2.4219 2.0469-5.4414 1.0234-8.0781zm-65.672 16.727c4.0117-7.1914 4.8281-16.828 5-20.285-1.7148-1.4531-3.1914-3.1836-4.3867-5.0898-3.1602-0.11328-6.2852-2.3984-8.1484-5.8867 0 2.4648 0.42188 7.3516 3.3633 11.184 3.3398 4.375 4.5898 8.75 3.3398 11.727-0.67188 1.5898-2.0234 2.625-3.7266 2.8281-0.29687 0.035156-0.57812 0.058594-0.83984 0.058594-1.1836 0-2.0898-0.35156-2.6914-1.0586-1.0781-1.2266-0.66016-2.9336-0.61328-3.1133 0.16016-0.60156 0.77344-0.95312 1.375-0.80859 0.60156 0.16016 0.97656 0.77344 0.81641 1.375-0.058594 0.23828-0.089844 0.79688 0.13672 1.0586 0.21484 0.25 0.77344 0.32812 1.5469 0.23828 0.91016-0.11328 1.5469-0.60156 1.9102-1.4531 0.30859-0.75 0.41016-1.8086 0.13672-3.125-0.73828-0.41016-4.75-2.3984-7.3164 0.73828-1.3398 1.6367-2 4.8164-0.56641 7.4648 1.6016 3 5.3633 4.4531 10.672 4.1484zm-3.793-15.215c-0.52344-1.0664-1.2266-2.2266-2.1836-3.4766-3.7969-4.9414-3.9219-11.184-3.8164-13.488-1.5898-0.46484-3.0234-1.5-4.1836-3.0469-0.066406-0.089844-0.13672-0.18359-0.20312-0.28516-1.5352 1.8164-4.7852 6.6914-1.6133 12.375 3.0664 5.5 1.9336 8.8867 0.035156 10.125-0.56641 0.36328-1.1914 0.54688-1.8281 0.54688-1.1836 0-2.3867-0.625-3.25-1.7852-0.375-0.5-0.27344-1.2148 0.23828-1.5898 0.5-0.375 1.2148-0.26172 1.5898 0.23828 0.58984 0.79688 1.3984 1.0781 2.0117 0.68359 0.92188-0.60156 1.4766-2.8867-0.61328-6.7969-1.2617-0.13672-2.7734-0.078125-4.2031 0.47656-1.9531 0.77344-3.375 2.2852-4.2383 4.5117-1.0234 2.6367-0.63672 5.6602 1.0234 8.0781 1.3516 1.9648 4.7148 5.2148 12.273 5.4102-1.7969-3.5234-0.92188-7.5781 0.91016-9.8164 2.3398-2.8633 5.6133-2.875 8.0586-2.1602zm1.125-18.617c-0.89844 0.70312-1.8516 1.2383-2.8398 1.5586 1.1836 2.2031 2.9336 3.7383 4.7383 4.3398-0.61328-1.2852-1.0898-2.6367-1.4336-4.0234zm47.793 1.5586c-0.98828-0.32812-1.9414-0.85156-2.8281-1.5664l-0.47656 1.8867c-0.33984 1.3867-0.81641 2.7383-1.4336 4.0234 1.8086-0.60156 3.5586-2.1367 4.7383-4.3398zm0.10547 42.5h-50.844c-0.60156 0-0.78516-0.80859-0.23828-1.0781 10.285-5.2383 12.535-21.059 13.023-27.715l4.4531 3.3398c2.3398 1.7617 5.25 2.7266 8.1836 2.7266s5.8398-0.96484 8.1836-2.7266l4.4531-3.3398c0.48828 6.6602 2.7383 22.477 13.023 27.715 0.54688 0.27344 0.36328 1.0781-0.23828 1.0781zm-27.695-5.6836c0-6.3789-6.1367-8.9062-6.3945-9.0117-0.58594-0.23438-1.2383 0.050781-1.4727 0.62891-0.23438 0.58203 0.046875 1.2422 0.62891 1.4805 0.20312 0.082032 4.9688 2.0781 4.9688 6.8984 0 0.62891 0.50781 1.1367 1.1367 1.1367s1.1367-0.50781 1.1367-1.1367zm12.418-8.375c-0.23438-0.58203-0.89844-0.86719-1.4766-0.63281-0.26172 0.10547-6.3984 2.6328-6.3984 9.0117 0 0.62891 0.50781 1.1367 1.1367 1.1367s1.1367-0.50781 1.1367-1.1367c0-4.8125 4.75-6.8086 4.9688-6.8984 0.58203-0.23438 0.86328-0.89453 0.63281-1.4766zm-38.441-30.375c4.1836 0.60156 8.5469-4.6836 9.5234-11.535 0.28516-1.9648 0.26172-3.8984-0.011718-5.6484-1.1445 0.33203-2.2617 0.51953-3.332 0.57813-0.21484 2.5781-1.1797 8.832-5.5195 10.402-0.12891 0.046875-0.25781 0.066407-0.38672 0.066407-0.46484 0-0.90234-0.28906-1.0703-0.75-0.21484-0.58984 0.09375-1.2422 0.68359-1.4531 2.8242-1.0234 3.7969-5.6953 4.0273-8.3594-0.52344-0.078126-1.0312-0.19922-1.5156-0.35547-0.73828 1.6953-2.293 4.5781-4.6602 5.5977-0.14844 0.0625-0.30078 0.09375-0.44922 0.09375-0.44141 0-0.85938-0.25781-1.043-0.6875-0.25-0.57812 0.015625-1.2461 0.59375-1.4922 1.5859-0.68359 2.8555-2.9922 3.5156-4.5195-0.21094-0.13672-0.43359-0.25781-0.63281-0.41406-1.0781-0.86328-1.9219-1.9531-2.5-3.25-1.5352 2.0586-2.6914 4.8633-3.125 7.9883-0.97656 6.8516 1.7266 13.148 5.9102 13.738zm56.875-18.477c-0.19922 0.15625-0.41797 0.27734-0.62891 0.41406 0.66016 1.5312 1.9375 3.8359 3.5156 4.5156 0.57422 0.25 0.83984 0.91797 0.59375 1.4922-0.18359 0.42969-0.60547 0.6875-1.043 0.6875-0.14844 0-0.30078-0.03125-0.44922-0.09375-2.3672-1.0195-3.918-3.8945-4.6562-5.5898-0.48438 0.15625-0.99219 0.27344-1.5195 0.35156 0.23047 2.6641 1.2031 7.3359 4.0273 8.3555 0.58984 0.21484 0.89453 0.86328 0.68359 1.4531-0.16797 0.46094-0.60547 0.75-1.0703 0.75-0.12891 0-0.25781-0.019531-0.38672-0.066406-4.3438-1.5703-5.3086-7.8242-5.5234-10.402-1.0703-0.058593-2.1875-0.24609-3.332-0.57812-0.27344 1.75-0.29687 3.6836-0.011718 5.6484 0.97656 6.8516 5.3516 12.137 9.5234 11.535 4.1836-0.58984 6.8867-6.8867 5.9102-13.738-0.44141-3.125-1.6016-5.9336-3.125-7.9883-0.57813 1.2969-1.4219 2.3867-2.5 3.25zm-51.141-25.797c7.4375-9.375 17.441-13.824 22.336-9.9375 0.082031 0.066406 0.14844 0.14844 0.22656 0.21484 0.078125-0.070312 0.14062-0.15234 0.22656-0.21484 4.8984-3.8867 14.898 0.5625 22.34 9.9375s9.5039 20.125 4.6055 24.012c-4.8984 3.8867-14.898-0.5625-22.34-9.9375-1.4453-1.8242-2.6719-3.6953-3.6953-5.5586v-8.4453c0-0.62891-0.50781-1.1367-1.1367-1.1367s-1.1367 0.50781-1.1367 1.1367v8.4453c-1.0234 1.8633-2.25 3.7383-3.6953 5.5586-7.4414 9.375-17.441 13.824-22.34 9.9375-4.8984-3.8867-2.832-14.637 4.6055-24.012zm32.34 2.8594c3.5508 6.9805 11.848 8.4727 12.199 8.5352 0.066407 0.011719 0.12891 0.015625 0.19141 0.015625 0.54297 0 1.0234-0.39062 1.1172-0.94141 0.10547-0.61719-0.30859-1.207-0.92578-1.3125-0.074219-0.011719-7.5312-1.3789-10.559-7.3242-0.28516-0.5625-0.97266-0.78125-1.5273-0.5-0.55859 0.28516-0.78125 0.96875-0.5 1.5273zm-4.5586 2.2539c6.4766 14.172 19.492 14.449 20.047 14.453h0.011719c0.62109 0 1.1289-0.5 1.1367-1.125 0.007813-0.625-0.49609-1.1406-1.125-1.1484-0.49219-0.007813-12.145-0.30469-18-13.125-0.26172-0.57031-0.93359-0.82422-1.5078-0.55859-0.57031 0.26172-0.82031 0.93359-0.55859 1.5078zm-28.504 5.3516c0.09375 0.55469 0.57422 0.94141 1.1172 0.94141 0.0625 0 0.12891-0.003907 0.19141-0.015625 0.35156-0.058594 8.6484-1.5547 12.199-8.5352 0.28516-0.55859 0.0625-1.2422-0.49609-1.5273-0.55859-0.28125-1.2422-0.0625-1.5273 0.5-3.0273 5.9453-10.484 7.3125-10.559 7.3242-0.61719 0.10938-1.0312 0.69531-0.92578 1.3125zm-3.125 7.9766c0.003906 0.625 0.51172 1.125 1.1367 1.125h0.011719c0.55078-0.003906 13.57-0.28125 20.047-14.453 0.26172-0.57031 0.007813-1.2461-0.5625-1.5078-0.57031-0.26172-1.2461-0.011719-1.5078 0.55859-5.8594 12.82-17.508 13.121-18 13.125-0.625 0.007813-1.1289 0.51953-1.125 1.1445zm30.996 32.359c-0.80469-0.51562-1.6445-1.0977-2.4297-1.6758l-1.6484 0.82422c-0.32031 0.16016-0.69531 0.16016-1.0156 0l-1.6484-0.82422c-0.78516 0.57422-1.6211 1.1602-2.4297 1.6758 3.0273 0.51172 6.1367 0.51562 9.168 0zm-10.574 2.0586c0.88672 1.3359 2.625 2.8945 5.9883 2.8945s5.1016-1.5547 5.9883-2.8945c-1.9688 0.40625-3.9727 0.62109-5.9883 0.62109s-4.0195-0.21484-5.9883-0.62109zm-13.82-6.8906-0.78516-3.125c2.0117-2.4102 3.5-5.8281 4.0664-9.7852 0.16016-1.1133 0.23828-2.2031 0.23828-3.2617 0-1.2148-0.10156-2.3867-0.29688-3.4883 4.6367-1.9219 9.5117-5.7617 13.523-10.816 1.125-1.4219 2.1484-2.875 3.0586-4.3867 0.91016 1.5117 1.9336 2.9648 3.0586 4.3867 4.0117 5.0586 8.8867 8.8984 13.523 10.816-0.35156 2.0664-0.39844 4.3633-0.058594 6.75 0.56641 3.9531 2.0586 7.375 4.0664 9.7852l-0.78516 3.125c-1.1367 4.5469-3.8164 8.5898-7.5664 11.398l-5.4219 4.0664c-1.9531 1.4648-4.375 2.2734-6.8164 2.2734s-4.8633-0.80859-6.8164-2.2734l-5.4219-4.0664c-3.75-2.8086-6.4336-6.8633-7.5664-11.398zm28.672 4.5195c-0.21484-0.26172-0.50781-0.41406-0.85156-0.41406-0.63281-0.10938-3.125-1.7344-5.0586-3.1836-0.34375-0.25781-0.80469-0.29688-1.1914-0.10938l-1.7656 0.88281-1.7656-0.88281c-0.38281-0.19141-0.84375-0.15234-1.1914 0.10938-1.9336 1.4492-4.4258 3.0742-5 3.1797-0.33984 0-0.66406 0.15234-0.87891 0.41797-0.21484 0.26172-0.30078 0.60938-0.23438 0.94141 0.45703 2.2812 2.9375 6.5938 9.0703 6.5938 6.1289 0 8.6133-4.3164 9.0703-6.5938 0.066406-0.33594 0.007813-0.67969-0.20703-0.94141zm-12.902-7.4258 2.1484 1.4336c0.57422 0.38281 1.2305 0.57422 1.8906 0.57422 0.65625 0 1.3164-0.19141 1.8906-0.57422l2.1484-1.4336c0.52344-0.34766 0.66406-1.0547 0.31641-1.5742-0.34766-0.52344-1.0547-0.66406-1.5742-0.31641l-2.1484 1.4336c-0.38281 0.25391-0.87891 0.25391-1.2617 0l-2.1484-1.4336c-0.52344-0.34766-1.2266-0.20703-1.5742 0.31641-0.34766 0.52344-0.20703 1.2266 0.31641 1.5742zm9.6328-10.473c-0.24219-0.57812-0.90625-0.85156-1.4844-0.61328-0.57812 0.24219-0.85156 0.90625-0.61328 1.4844 0.75391 1.8047 2.5039 2.9727 4.457 2.9727 1.957 0 3.707-1.168 4.457-2.9727 0.24219-0.57812-0.03125-1.2461-0.61328-1.4844-0.57812-0.24219-1.2422 0.03125-1.4844 0.61328-0.39844 0.95703-1.3242 1.5742-2.3594 1.5742s-1.9609-0.61719-2.3594-1.5742zm-11.277-7.5195c0 0.44141 0.25781 0.84375 0.66016 1.0312 1.8125 0.83984 3.1758 2.418 3.7422 4.332l0.19141 0.64063c0.14453 0.48437 0.58594 0.8125 1.0898 0.8125s0.94531-0.33203 1.0898-0.8125l0.19141-0.64063c0.56641-1.9141 1.9297-3.4922 3.7422-4.332 0.40234-0.18359 0.66016-0.58984 0.66016-1.0312 0-0.44141-0.25781-0.84375-0.66016-1.0312-1.8125-0.83984-3.1758-2.418-3.7422-4.332l-0.19141-0.64062c-0.14453-0.48438-0.58594-0.8125-1.0898-0.8125s-0.94531 0.33203-1.0898 0.8125l-0.19141 0.64062c-0.56641 1.9141-1.9297 3.4922-3.7422 4.332-0.40234 0.18359-0.66016 0.58984-0.66016 1.0312zm-6.7305 8.3906c0.75 1.8047 2.5 2.9727 4.457 2.9727s3.707-1.168 4.457-2.9727c0.24219-0.57812-0.035156-1.2461-0.61328-1.4844-0.57812-0.24219-1.2461 0.03125-1.4844 0.61328-0.39844 0.95703-1.3242 1.5742-2.3594 1.5742-1.0352 0-1.9609-0.61719-2.3594-1.5742-0.24219-0.57812-0.90625-0.85547-1.4844-0.61328-0.57812 0.24219-0.85156 0.90625-0.61328 1.4844zm12.414-5.7422c0.60547-1.0273 1.4062-1.9258 2.3555-2.6484-0.94922-0.72266-1.75-1.625-2.3555-2.6484-0.60547 1.0273-1.4062 1.9258-2.3555 2.6484 0.94922 0.72266 1.75 1.625 2.3555 2.6484z"/>
<!-- Created by Kmg Design from Noun Project --></svg>